<svg id="Ebene_1" data-name="Ebene 1" xmlns="http://www.w3.org/2000/svg" viewBox="0 0 206.79 339"><defs><style>.cls-1,.cls-4,.cls-5{fill:#c7ac91;}.cls-2{fill:#fefefe;}.cls-3{fill:#fff;}.cls-4,.cls-5{stroke:#c7ac91;stroke-miterlimit:10;}.cls-5{stroke-width:0.75px;}</style></defs><path class="cls-1" d="M135,0c-.74,8.5-1.65,17-2.17,25.52-.58,9.52.33,18.63,5.12,27.1a23.89,23.89,0,0,1,2.9,7.32c.32,1.71,1.13,2,2.74,2q27.81-.09,55.62,0c5.24,0,7.55,2.36,7.55,7.64q0,128.55,0,257.12c0,1.67,0,3.35,0,5-.09,5.12-2.28,7.29-7.33,7.29H7.09c-4.64-.1-7-2.47-7-7.17Q0,301,0,270.24V69.67c0-5.51,2.29-7.78,7.91-7.78q27.45,0,54.91.06c1.8,0,2.81-.2,3.24-2.3a21,21,0,0,1,2.55-6.42c5.65-9.38,6.14-19.59,5.34-30.12C73.37,15.39,72.65,7.69,71.73,0h2.4c1.55,2.5,1.32,5.38,1.59,8.11.49,5.1.36,4.92,5.38,4.72a73.4,73.4,0,0,1,24.33,3.05c1.49.45,3.43.9,3.38,2.85s-2,2.24-3.55,2.58c-3.43.75-7,1-10.42,1.43a73.92,73.92,0,0,0-15.29,3.81c-1.65.61-2.48,1.61-2.33,3.39.82,9.42-2.12,17.93-6.38,26.11-2.35,4.61-3.52,9.41-2.26,14.57a12.42,12.42,0,0,0,6.2,8.4c2,1.1,2.46,1,2.89-1.24a31.08,31.08,0,0,1,3.22-9.23c1-1.85,2.63-2.35,3.9-1.27S86,69.59,85.37,71a32.78,32.78,0,0,0-2.7,8.41A9.57,9.57,0,0,0,88,90.07a13,13,0,0,0,10.42,1.06A2.92,2.92,0,0,0,100.81,88c0-3.19,0-6.38,0-9.58,0-.55,0-1.11,0-1.67.14-2.19,1.07-3.42,2.59-3.41s2.46,1.25,2.52,3.45c.08,3.59.09,7.18,0,10.77a3.21,3.21,0,0,0,2.52,3.52,12.72,12.72,0,0,0,15.12-5.66,6.73,6.73,0,0,0,.9-4.35A27.48,27.48,0,0,0,122,72.14a12.8,12.8,0,0,1-.59-1.31c-.62-1.82-.18-3.42,1.19-3.91,1.68-.6,2.8.33,3.54,1.67a33.61,33.61,0,0,1,3.17,9.26c.48,2.15.8,2.29,2.69,1.27,4.33-2.35,6.29-6.2,6.7-10.93a21.6,21.6,0,0,0-2.33-11.59c-1.84-4.15-4.08-8.13-5.31-12.54A3.34,3.34,0,0,0,128.59,42a77.32,77.32,0,0,0-23-4.34,21.07,21.07,0,0,1-5.43-.77c-1-.3-1.8-.8-1.92-1.91s.69-1.71,1.53-2.22a14.54,14.54,0,0,1,3.31-1.37,78.83,78.83,0,0,1,23.14-3.27c3.13,0,3.38-.2,3.68-3.33.27-2.86-.05-5.74.43-8.6.24-1.43-.85-1.87-2-2.25a100.81,100.81,0,0,0-17.22-4.1A28.09,28.09,0,0,1,106,8.6c-1-.35-2-.87-2-2.11s.81-1.69,1.67-2.13c3.31-1.71,7-2.22,10.55-3S123.35.56,126.88,0Z"/><path class="cls-2" d="M204.56,200.61V330.47c0,5.32-1,6.35-6.25,6.35H8c-4.41,0-5.74-1.29-5.74-5.68q0-130.83,0-261.65c0-4,1.37-5.34,5.3-5.34,18.46,0,36.92,0,55.38-.06,1.78,0,2.21.4,2.16,2.22-.24,8.8,4.44,15,12.9,17.16a2.42,2.42,0,0,1,1.77,1.66c4,9.76,14.56,11.43,22,7.84a3.22,3.22,0,0,1,3.26-.08c8.7,4.4,18.22,1,22.22-7.86a2.23,2.23,0,0,1,1.56-1.56c8.61-2.38,13-8,13-16.84,0-2.13.5-2.57,2.58-2.56,18.06.09,36.12.05,54.18.05,4.82,0,6,1.13,6,5.91q0,65.29,0,130.58Z"/><path class="cls-1" d="M64.88,121.11c3.28-.78,5.82.16,8.31,1.64,3.21,1.9,5.48,1.65,8.3-.7.56-.47,1.07-1.17,1.77-.3s0,1.32-.51,1.84c-1.9,2.12-5.84,3.28-8.59,1.63-5.13-3.06-9.85-2.42-14.95-.07a19.47,19.47,0,0,1-13.82.75c-11.85-3.43-17.22-15.82-11.7-26.9a19.38,19.38,0,0,1,27.75-7.88c9.27,5.59,11.71,18.56,5.2,27.69C66.19,119.45,65.68,120.06,64.88,121.11Z"/><path class="cls-1" d="M66.48,248.69A7.31,7.31,0,0,1,65,253.35C59,262.53,52.83,271.55,47.28,281c-2.53,4.3-5,8.68-7.58,12.93a17,17,0,0,1-2,2.69,3.4,3.4,0,0,1-4.78.41,3.25,3.25,0,0,1-1.16-4.61,82.65,82.65,0,0,1,5.3-8.25C45.51,273,52.54,261,60.38,249.43a5.87,5.87,0,0,1,9.67-.57,9.65,9.65,0,0,1,1.52,10.94,25.86,25.86,0,0,1-4.24,5.77,8.7,8.7,0,0,0-2.53,5c-.1,1.32-.14,2.66,1.85,2.56a1.77,1.77,0,0,1,1.76,1.06c.63,2.08,2.27,2.06,3.93,2.28a10.48,10.48,0,0,1,5.6,2.52c.75.64,2.06,1.29.6,2.61-.72.65.24.91.58,1.19a11.77,11.77,0,0,0,6.72,2.86c.78.05,1.78,0,2,.88s-.73,1.46-1.35,2A4.86,4.86,0,0,1,86,289c-2.85,1.83-2.88,1.83-3,5-.06,1.19-.59,1.75-1.77,1.77a5.31,5.31,0,0,1-3-.56c-2.47-1.66-3-.29-3.44,1.86-.29,1.42-.43,3.47-2.12,3.67-1.52.18-2-1.79-2.81-2.94A20.48,20.48,0,0,1,68.34,295c-.17-.36-.32-1-.5-1-3.79-.21-2.36-3.23-2.76-5.19-.18-.87.14-1.72-1.32-1.27-.81.25-1-.57-1.08-1.23a5.9,5.9,0,0,1,.12-2.6c1.94-3.91.61-7.73,0-11.6a8,8,0,0,1,2-6.42c1.64-2.06,3.55-3.91,4.77-6.28C71.62,255.41,70.47,251.16,66.48,248.69Z"/><path class="cls-1" d="M141.22,278.14c0-4.87.05-9.74,0-14.6a5.94,5.94,0,0,1,1.24-4c1.32-1.7,2.51-3.5,3.86-5.17a9.66,9.66,0,0,0,2.63-6.22c0-1.69.93-2.54,2.79-2.41,5.49.4,11,.71,16.48,1,1.56.09,1.91,1.09,1.7,2.29-.51,3,.68,5.25,3,7,3.24,2.5,4.14,5.76,4,9.81-.27,8.45-.14,16.91-.07,25.36a2.94,2.94,0,0,1-1.95,3.12,91,91,0,0,0-8.31,4.19,10.14,10.14,0,0,1-8.43.93c-4.9-1.39-9.87-2.56-14.85-3.66-1.47-.33-2-.92-1.94-2.39.07-5.1,0-10.21,0-15.31Z"/><path class="cls-1" d="M50.59,158.77v5.51c0,.72-.3,1.33-1.05,1.33s-.92-.71-.92-1.39c0-3.19-.09-6.39,0-9.58.06-1.66-.22-2.41-2.16-2.32-3.34.17-3.3,0-3.45,3.47-.13,2.71-.39,5.41-.59,8.12-.12,1.67-.88,2.16-2.56,1.68a30.37,30.37,0,0,1-15.7-10c-2.62-3.19-2.62-4.55-.16-7.8,4.06-5.39,9.65-8.42,16-10.38,1.76-.55,2.13.37,2.33,1.68a50.91,50.91,0,0,1,.69,9.3c-.05,1.72.6,2.13,2.22,2.08,3.37-.1,3.38,0,3.37-3.48,0-2.64,0-5.27,0-7.91,0-.67-.17-1.59.92-1.59s1,.86,1,1.57c0,2.88.21,5.77,0,8.62-.2,2.44.7,3.15,2.92,2.75h.24c2.05.36,2.86-.35,2.63-2.55s-.11-4.62-.12-6.94c0-.79-.05-1.81,1-1.84s1,1,1,1.78c0,2.56.08,5.12,0,7.67,0,1.41.27,1.93,1.82,1.91,3.89,0,3.89.05,3.89-3.95,0-1.28,0-2.55,0-3.83,0-.63-.1-1.42.81-1.45s1.14.72,1.15,1.49c0,1.76-.1,3.52,0,5.27,0,.81-.63,2.33.74,2.32,1.56,0,3.52,1.13,4.75-1a22.65,22.65,0,0,1,7.75-8.31,15.19,15.19,0,0,1,3.24-1.52c1.87-.57,2.52.14,2.08,2.07a13.3,13.3,0,0,1-.56,1.83,20.74,20.74,0,0,0,.07,16.07,7.54,7.54,0,0,1,.29.92c.23.89.92,1.9.06,2.68s-2,.13-2.9-.28a21.62,21.62,0,0,1-9.72-8.91c-.5-.81-.89-1.52-2.12-1.56-3.69-.13-3.69-.21-3.68,3.55,0,1.28,0,2.55,0,3.83a1,1,0,0,1-1,1.1c-.71,0-.87-.58-.88-1.18,0-1.84-.09-3.68,0-5.51.06-1.3-.28-1.79-1.71-1.8-4,0-4-.11-4,4,0,1.67,0,3.35,0,5,0,.83.22,2-1,2s-.92-1.28-.93-2.1c0-2.32-.12-4.64,0-6.94.11-1.64-.49-2.14-2-2a8.15,8.15,0,0,1-2.15,0c-1.32-.16-1.64.41-1.57,1.63.1,1.59,0,3.19,0,4.79Z"/><path class="cls-1" d="M51.86,234.67c-7.19,0-14.38,0-21.57,0-1.84,0-3.45-.4-4.05-2.27s.48-2.91,2-3.91c1.81-1.22,2.64-3.34,4-5,.53-.65-.24-1-.47-1.42-1.76-3.18-1.5-6.24.74-8.33s5.15-2.16,8.1-.14c.89.6,1.14.58,1.76-.31,3.16-4.54,8.19-4.93,12-.91a3.51,3.51,0,0,0,2.24,1.09A17.31,17.31,0,0,1,71.33,230.1c.11,2.38.91,2.78,3,2.45,3.73-.59,6.94-1.94,8.56-5.64s-.79-7.79-4.4-7.66a3,3,0,0,0-3.06,1.88,2.51,2.51,0,0,0,1.06,3.31c.6.4,1.27.9.58,1.72s-1.48.4-2.15,0c-2.53-1.72-2.17-6.3.61-8,3.84-2.35,9,.31,9.74,5,.88,5.68-3.67,10.74-10.38,11.28-7.09.58-14.21.12-21.32.24-.56,0-1.12,0-1.68,0Z"/><path class="cls-1" d="M53.79,173.81a51.84,51.84,0,0,1,15.36,2,8,8,0,0,1,5.71,5.25c1.15,3.23,2.53,6.37,3.73,9.58,1.36,3.68.81,5.32-2.52,7.44-5.41,3.44-11.53,4.59-17.77,5a56.05,56.05,0,0,1-22.44-2.61c-8.19-2.88-9.27-5.21-6.08-13.15.77-1.92,1.61-3.82,2.24-5.79,1-3.19,3.25-4.92,6.38-5.84A55.59,55.59,0,0,1,53.79,173.81Z"/><path class="cls-3" d="M42.85,92.16C42,105.77,46,116.65,58.72,123.09c-2.83,1.38-5.25.11-7.52-1.35-5.73-3.69-9-9.12-10.62-15.62a24,24,0,0,1-.63-10C40.38,93.77,40.33,93.76,42.85,92.16Z"/><path class="cls-3" d="M37.69,96.43c-.63,13.52,5.74,23,14,28-4.1.76-8.22-2.06-12.25-8.89C35.89,109.52,34.49,103.13,37.69,96.43Z"/><path class="cls-3" d="M47.63,109.19c-1.82-2.39-1.71-4.62-.26-7a22.23,22.23,0,0,1,9.82-9.13c1.84-.84,3.34-.49,4.92,1.06C54.36,96.34,50.58,102.23,47.63,109.19Z"/><path class="cls-3" d="M67.62,103.48c.92,2.81-.05,4.47-2,5.89a23.88,23.88,0,0,1-13.29,4.75c-1.74.07-2.7-.53-3.07-2.31C56.32,111.24,62.73,109.29,67.62,103.48Z"/><path class="cls-3" d="M51.93,116.12c6.34-.56,11.78-2.2,16.27-7-.37,5-3.87,6.49-7.26,7.76C58.12,117.91,55.07,119.09,51.93,116.12Z"/><path class="cls-3" d="M57.18,91.12c-5.73,2.28-9.25,6.24-11.92,11.12-1.11-3.11-.75-4.76,2.08-7.44C49.89,92.4,52.42,89.62,57.18,91.12Z"/><path class="cls-3" d="M63.61,103.86c0,1.6-1.37,2.07-2.37,2.4s-.71-1-.9-1.51a13.55,13.55,0,0,0-2.48-4.57c-.4-.44-1.45-.84-.48-1.65.65-.55,1.46-1.32,2.32-.67A9.85,9.85,0,0,1,63.61,103.86Z"/><path class="cls-3" d="M55.58,100.64c.43,0,.67.45,1,.79a14.25,14.25,0,0,1,2.23,3.88c.87,1.85,0,2.55-1.6,3-.81.24-1.27.29-1.48-.73a9.9,9.9,0,0,0-1.92-3.78C53.15,102.93,54.35,100.71,55.58,100.64Z"/><path class="cls-3" d="M41.4,121.68c-6.5-4.09-9.16-10.73-7.09-18.22A26.06,26.06,0,0,0,41.4,121.68Z"/><path class="cls-3" d="M65.35,103.38c-.6-2.87-2.41-4.77-3.92-6.84,1.9-1.29,3.23-.6,4.12,1.15S68.3,101.29,65.35,103.38Z"/><path class="cls-3" d="M49.61,109.84c.36-2,1.39-3.43,2.3-5.27,1.19,1.49,2.81,3,2.2,4.38S51.3,109.81,49.61,109.84Z"/><path class="cls-3" d="M65.26,117c-2.72,4.69-3.73,5.06-8.24,2.87C60,119,62.82,118.65,65.26,117Z"/><path class="cls-3" d="M44.5,95.2c-.08-4.34.42-4.76,5.56-5C48.07,91.69,46.09,92.84,44.5,95.2Z"/><path class="cls-3" d="M64.62,250c-.29.5-.61,1.14-1,1.73q-8.74,13.59-17.54,27.13c-.43.67-.62,2.16-2,1.41s-.34-1.8.17-2.58Q53.1,264.07,62,250.43A4.54,4.54,0,0,1,63.24,249C64.08,248.49,64.58,248.89,64.62,250Z"/><path class="cls-3" d="M69.19,278.55a6.31,6.31,0,0,1,4.75.43c.79.37,2.42.48.86,2-.58.59.4,1.07.79,1.49a19.42,19.42,0,0,0,8.59,5.15,4.94,4.94,0,0,1-3.17.79c-1.71-.12-1.87.6-1.27,2,.43,1,1.81,2.34.74,3.12-.83.61-2.34-.5-3.43-1.15a3.85,3.85,0,0,1-2-2.5A25.4,25.4,0,0,0,69.19,278.55Z"/><path class="cls-3" d="M64.4,284.81c.7-2.16.74-4.55,2.52-4.83s2.44,2,3.29,3.39c2.69,4.39,4.28,9,2.25,14.4a8.84,8.84,0,0,1-2.66-5.53c-.17-1.08-.32-2.2-1.89-1.55-.82.34-1-.12-1-.75a14.26,14.26,0,0,1,.1-2.62C67.34,285.46,67.35,284,64.4,284.81Z"/><path class="cls-3" d="M41.62,281.28c1.34,0,2.49,1.64,1.86,2.68-2.22,3.69-4.52,7.31-6.85,10.93a1.57,1.57,0,0,1-2.46.53,1.5,1.5,0,0,1-.55-2.25q3.62-5.64,7.23-11.25A2.87,2.87,0,0,1,41.62,281.28Z"/><path class="cls-3" d="M66.47,277.82A1.82,1.82,0,0,1,65.28,276c0-.51.38-1,.92-.81a1.6,1.6,0,0,1,1.19,1.8A.9.9,0,0,1,66.47,277.82Z"/><path class="cls-2" d="M161.32,282c0,4.7,0,9.4,0,14.1,0,1.47-.07,2.14-1.92,1.63-4.76-1.3-9.58-2.38-14.4-3.46-1.34-.3-1.75-.87-1.74-2.25,0-8.93,0-17.86-.15-26.79,0-2.09.6-2.23,2.44-1.88,4.46.86,9,1.5,13.46,2.1,1.45.2,2.05.6,2,2.2-.11,4.78,0,9.56,0,14.35Z"/><path class="cls-2" d="M163,298.08c0-10.67,0-20.78,0-30.89a1.53,1.53,0,0,1,1.23-1.71c3.47-1.11,6.93-2.26,10.59-3.47,0,9.87,0,19.49,0,29.12a1.66,1.66,0,0,1-1.08,1.65Z"/><path class="cls-2" d="M167.33,254.32,161.85,263a1.58,1.58,0,0,1-1.81.76c-5.34-.88-10.68-1.71-16.36-2.6,2.07-2.75,4-5.29,5.87-7.82a1.49,1.49,0,0,1,1.4-.73Z"/><path class="cls-3" d="M153.87,247.86c4.23.26,8.45.63,12.68.76,1.9.06,1.38,1.24,1.46,2.28.1,1.21-.4,1.45-1.55,1.32-4.61-.48-9.23-.81-13.84-1.3-.81-.09-2.16.43-2-1.48s1-1.9,2.32-1.7c.31,0,.64,0,1,.07Z"/><path class="cls-3" d="M174.62,260.06,164,263.43c1.69-2.82,3.14-5.19,4.54-7.6.4-.68.64-.69,1.21-.14C171.17,257.06,172.69,258.34,174.62,260.06Z"/><path class="cls-2" d="M40.44,163.65c-6.58-1.93-12-5.2-15.86-10.92-.76-1.14-.2-2,.4-2.82a27.66,27.66,0,0,1,14.15-10.13c1.16-.4,1.36,0,1.47,1A96.29,96.29,0,0,1,40.44,163.65Z"/><path class="cls-3" d="M82.59,141.44a23.1,23.1,0,0,0,.06,19.92,22.19,22.19,0,0,1-9.52-8.83,1.87,1.87,0,0,1-.07-2A20.3,20.3,0,0,1,82.59,141.44Z"/><path class="cls-2" d="M50.38,232.6c-5.51,0-11,0-16.52,0a3,3,0,0,1-2.5-4.41,28.52,28.52,0,0,1,8.5-8.62c.31-.2.87-.5,1-.38,3.11,2.38,2.18-.6,2.3-1.8.28-2.95,1.9-5.14,4.34-5.59a5,5,0,0,1,5.82,3.07c1.13,2.68-.45,5.77-3.58,7.07-.71.29-2.12.15-1.59,1.48.42,1.05,1.59.61,2.34.34a7.42,7.42,0,0,0,5.22-6.52c.15-1.57.54-1.88,2-1.55,6.76,1.54,12.05,8.62,11.76,15.6-.06,1.57-.93,1.34-1.86,1.34l-8.62,0H50.38Z"/><path class="cls-3" d="M32.66,218.39a3.91,3.91,0,0,1,4.62-4.14c1.31.27,2.64.93,2.93,2.17.22,1-1.29,1.18-2,1.76a18,18,0,0,1-2.3,1.71c-.75.44-1.11,1.92-2.2,1.3C32.82,220.68,32.74,219.44,32.66,218.39Z"/><path class="cls-2" d="M52.08,175.77c6.63,0,11.62.39,16.45,2a6.93,6.93,0,0,1,4.88,4.76c1,3.11,2.23,6.13,3.46,9.15.86,2.1.19,3.45-1.65,4.6-4.72,3-10,4.19-15.4,4.67a56.27,56.27,0,0,1-22.49-2.08,21,21,0,0,1-6-2.93,3,3,0,0,1-1.21-3.77c1.41-3.81,2.84-7.61,4.37-11.37.91-2.24,3.07-2.9,5.16-3.46A48.24,48.24,0,0,1,52.08,175.77Z"/><path class="cls-3" d="M137.22,191.35c-.72-.4-1.91.5-1.91-.87a1.81,1.81,0,0,1,1.88-2,1.78,1.78,0,0,1,1.79,1.83C139.07,192,137.65,190.78,137.22,191.35Z"/><path class="cls-1" d="M147.48,282.48c.2-4.15,2.7-7.38,4.47-10.9a1.5,1.5,0,0,1,2.11-.54c.82.49,0,1.08-.27,1.6s-.72,1.25-1,1.91c-.53,1.48-2.85,3.39,1.27,3.6,2.14.12,3,3.32,2.29,6.51-.57,2.53-2.15,3.66-4.89,3.47-2.36-.16-3.78-1.64-4-4.21C147.45,283.44,147.48,283,147.48,282.48Z"/><path class="cls-1" d="M36.82,148.77c-.16,1.64-1,2.7-2.69,2.71a2.65,2.65,0,1,1-.14-5.3A2.6,2.6,0,0,1,36.82,148.77Z"/><path class="cls-1" d="M40.12,226.32c-.19,1.14-.7,2-2,1.89a1.75,1.75,0,0,1-1.84-1.78,1.92,1.92,0,0,1,1.89-2C39.35,224.33,40,225.11,40.12,226.32Z"/><path class="cls-1" d="M53.32,186.76a48.16,48.16,0,0,1-11.72-1.2,14,14,0,0,1-2.5-.78c-1.25-.61-2.91-1-2.83-2.83s1.64-2.3,3-2.69a49.61,49.61,0,0,1,29.18.16c1.11.35,2.31.85,2.33,2.37s-1,2.06-2.09,2.64C65.67,186,60.71,186.79,53.32,186.76Z"/><path class="cls-3" d="M149.8,283.06c0-1.58.24-3.25,2.27-3.22,1.88,0,2.06,1.67,2.08,3.15S154,286,152,286.06,149.77,284.64,149.8,283.06Z"/><path class="cls-3" d="M69.14,181.58c-5.76,4.3-25.21,4.32-31,.15A48.27,48.27,0,0,1,69.14,181.58Z"/><path class="cls-4" d="M117.42,108l-.22.38a.4.4,0,0,1,.12.22.13.13,0,0,1,0,.08.69.69,0,0,1-.06.13,1.76,1.76,0,0,0-.11.36,4,4,0,0,1-.15.52q-.09.26-.15.39a1.11,1.11,0,0,1-.11.2.25.25,0,0,0,0,.08l-.21.48-.23.42v.06l-.82,1.1-.12.44-.4.46-.26.59-.29.11-.11.25a.83.83,0,0,0-.33.46l-.11.29-.2.17-.12.25-.5.7-.08.23a.66.66,0,0,1-.13.25l-.21.25v.36l-.18.35.14.82a.88.88,0,0,1-.4.18.24.24,0,0,1-.18.06l-.26-.13-.27-.75L111,117l0-.57-.4-.35-.22-.51a1.29,1.29,0,0,1-.21-.47l-.14-.41a1.45,1.45,0,0,0-.22-.45l-.13-.21a.62.62,0,0,1-.1-.24l0-.34-.2-.13-.16-.78-.32-.73,0-.13a1.77,1.77,0,0,1-.38-.94v-.11c-.1,0-.19.17-.3.4l-.22.21a4.27,4.27,0,0,0-.67.5v0a.3.3,0,0,1-.2.27l-.27.16a.41.41,0,0,0-.24.08,1.68,1.68,0,0,0-.29.3,2.33,2.33,0,0,1-.27.3l-.22.2-.46.61-.48.76-.36.28a1.48,1.48,0,0,0-.24.39c0,.2-.07.3-.1.31l-.23.08v.24l-.17.08-.14.4a1.19,1.19,0,0,0-.2.46c-.11,0-.16.11-.16.19l0,.11v.06a.41.41,0,0,0,.12.3l-.14,0,.08.2a.43.43,0,0,1-.2.26l0,.14v.09q0,.33-.24.33a.32.32,0,0,1-.27-.12l-.53-.78-.1-.29-.56-1-.22-.82-.36-.72-.06-.46-.25-.46-.19-.74v-.26l-.5-1.64.08-.26-.11-.12a.56.56,0,0,1,0-.08l-.07-.17a1.8,1.8,0,0,1-.08-.21v-.36l-.1-.86-.14-.2.12-.33a.47.47,0,0,0,.12-.31v-.09c0-.21.11-.31.22-.31a.57.57,0,0,1,.43.23.93.93,0,0,1,.19.59v.08l-.06.14.08.09-.08.33v.32l.24,1.7,0,.17.22.45.2,1.28.12.25.17.84.15.06v.27l.1.19a2.35,2.35,0,0,1,.08.51l.11,0,.11.54.14,0c.17.4.31.6.44.61.14-.33.23-.52.26-.57H103l.34-.42.08-.24a1,1,0,0,1,.24-.33v-.19s.14-.15.42-.33l.08-.36.44-.46.14-.32.28-.12a.46.46,0,0,1,.4-.51l.06-.17c.19,0,.28,0,.28-.1v-.06l.14-.18a.36.36,0,0,1,.24-.24c.27-.14.4-.29.4-.44v-.05l.22,0a1.13,1.13,0,0,0,.24-.53h.14l.19-.37h.17a.35.35,0,0,0,.25-.17V110l.18-.24a.59.59,0,0,0,.08-.23l.07-.41c.22-.14.34-.25.34-.32a.08.08,0,0,0,0-.06h.32a1.19,1.19,0,0,0,.46.4l0,.28-.06.52.06.61.5,1.24,0,.29.12.21a1.75,1.75,0,0,1,.12.47l.18.12.22,1.11.16.33a1.84,1.84,0,0,1,.13.52l.25.22.34.86a5.37,5.37,0,0,0,.71,1.14v0a.1.1,0,0,0,0-.06l.09-.59.26-.17,0-.23a1.81,1.81,0,0,1,.38-.25l.18-.38,0-.2a1.59,1.59,0,0,1,.25-.37.34.34,0,0,0,.25-.35v-.09l.28-.06.24-.45.49-.54.44-.8.31-.44.24-.54.26-.28a1.82,1.82,0,0,0,.32-.59l.3-.77-.12-.15.2-.42-.06-.17.16-.08v-.34l-.17-.19a1.23,1.23,0,0,1,.17-.57l0-.14h.14c0-.24.14-.36.26-.36a.35.35,0,0,1,.24.12Z"/><path class="cls-4" d="M124.75,113.19l-.13.42.08.18-.07.47a1.29,1.29,0,0,1-.15.31v.23l-.15.4-.11.18a1.82,1.82,0,0,0-.2.51l-.14,0-.08.27-.22.14-.16.36-.3.13,0,.27-.25.09c-.12.17-.2.27-.24.32a.55.55,0,0,1-.26.13,1.73,1.73,0,0,0-.28.12c0,.21-.22.33-.56.35a.35.35,0,0,1-.28.15.45.45,0,0,1-.16,0,1.15,1.15,0,0,1-.5.29l-.16.25-.26-.16-.06.12-.3-.12-.7-.07a3.12,3.12,0,0,0-.52-.71l.08-.26-.28-.73.12-.23-.12-.55.12-.31s0-.12,0-.26a2.57,2.57,0,0,1,0-.27.39.39,0,0,1,.2-.33v-.11a.91.91,0,0,1,.12-.44h.12A.57.57,0,0,0,119,114l-.06-.13.06-.31v-.19a.7.7,0,0,0,.18-.44l-.06-.32a.43.43,0,0,1,.06-.24q.3-.15.3-.3a.4.4,0,0,0-.08-.21l.2-.34a.23.23,0,0,1,.12-.12l.1-.07,0-.2c.21,0,.32-.13.32-.32a1.13,1.13,0,0,0-.06-.36.87.87,0,0,0,.88-.69H121c.09-.09.16-.13.2-.13a.67.67,0,0,1,.17,0,1.75,1.75,0,0,0,.47,0l.32-.14v.14a1.09,1.09,0,0,1,.5.22H123c.06.13.12.2.18.2l0,0a1.46,1.46,0,0,0,.46.49l.1.25.18.08.32.45.32.92v.19Zm-.63.56a.43.43,0,0,0,.12-.25.26.26,0,0,0-.07-.14s-.07-.08-.07-.09h.12a.41.41,0,0,0-.14-.21l0,0-.14-.33,0-.44-.18-.31c-.15-.09-.22-.16-.22-.2v-.06a.09.09,0,0,0-.07-.1.09.09,0,0,1-.07-.09v0a1.1,1.1,0,0,1,.08-.25l-.12-.1-.2,0-.08-.15.08-.11-.26-.14-.2-.18-.56-.24-.24,0c-.38,0-.57.11-.57.32l0,.67-.4,0-.62.38-.06.21-.22.15-.1.58-.2.13s-.06.12-.06.29a1.63,1.63,0,0,0,0,.36l-.24.13s-.08.16-.08.39a.41.41,0,0,1-.18.3v.19l-.18.29v.17l-.06.13,0,.27-.26.65.08.21v.47l-.08.33,0,.49.29.38a.93.93,0,0,0,.35.22l.06.09.14,0,.12,0,.24-.09.48,0,.22-.06.06-.14.2,0c.21,0,.32-.07.32-.2l.28.07.06-.15.18,0,.1-.23a.67.67,0,0,0,.24-.27h.32l.1-.21.34-.3.12-.18a.57.57,0,0,1,.18-.17l.28-.15a2.52,2.52,0,0,1,.18-.55l0-.18.28-.13,0-.09c.08-.11.15-.21.22-.29h-.1a.36.36,0,0,0,.08-.17.49.49,0,0,0,0-.15.49.49,0,0,1,0-.12.74.74,0,0,1,.06-.27.84.84,0,0,0,.06-.18A.11.11,0,0,0,124.12,113.75Z"/><path class="cls-4" d="M131.2,115.51a.24.24,0,0,1,.13.18c0,.16-.05.25-.13.27q-.24.39-.48.39a3.12,3.12,0,0,1-.65.66.58.58,0,0,0-.26.11l-.27.25a.37.37,0,0,0-.36.24l-.2,0-.07,0-.06.17h-.06a1.14,1.14,0,0,0-.42.12,2.58,2.58,0,0,1-.34.13l-.21.08h-.14l-.11-.17-.19-.16a2.09,2.09,0,0,0-.3-.53l-.06-.48,0-.23-.1-.13,0-.57,0-.5,0-.24A.32.32,0,0,0,127,115a.79.79,0,0,0-.14-.36c.06-.56.08-.86.08-.92a.56.56,0,0,0-.15-.36l.15-.08.06-.76,0-.32.15-.37-.11-.4a.8.8,0,0,0,.17-.51v-.67l0-.15v-1l0-1a1.56,1.56,0,0,1-.09-.75l0-.6,0-.22.09-.91a2.18,2.18,0,0,0,.23-.09l.15-.06s0,0,.08,0l.1.32.21.17-.15.21v.08a.47.47,0,0,0,.07.24c0,.22-.06.33-.15.33l.06.11a3.59,3.59,0,0,0,.11.84l-.17.52.13.17a1.55,1.55,0,0,0-.23.77.22.22,0,0,0,.18.24l-.14.38a1,1,0,0,1,.08.23.72.72,0,0,1-.08.27l0,.23-.1.65v.3a3.4,3.4,0,0,1-.16.63l.1.42-.06.77-.11.07.13.25-.09.38-.08.6.08.14-.08.06a.71.71,0,0,1,.13.48.63.63,0,0,1-.09.23l.09.23,0,.3.09.22,0,.16.21.66.25.09a1.46,1.46,0,0,1,.46-.17l.11,0,.28-.24a.55.55,0,0,1,.24-.1.4.4,0,0,1,.34-.2l.1-.11.15,0,0-.1.19,0,.19-.14.19-.06a1.69,1.69,0,0,0,.19-.18,1.74,1.74,0,0,1,.31-.24c0-.06,0-.11.13-.15a.08.08,0,0,0,.07,0A.41.41,0,0,0,131.2,115.51Z"/><path class="cls-4" d="M137.28,115.51a.22.22,0,0,1,.13.18c0,.16,0,.25-.13.27-.15.26-.31.39-.47.39a3,3,0,0,1-.66.66.58.58,0,0,0-.26.11l-.27.25a.37.37,0,0,0-.36.24l-.19,0-.08,0-.06.17h-.06a1.14,1.14,0,0,0-.42.12,2.12,2.12,0,0,1-.34.13l-.2.08h-.14l-.12-.17-.18-.16a1.85,1.85,0,0,0-.31-.53l-.06-.48,0-.23-.09-.13,0-.57,0-.5,0-.24a.41.41,0,0,0,0-.16.75.75,0,0,0-.13-.36c.05-.56.08-.86.08-.92a.58.58,0,0,0-.16-.36l.16-.08,0-.76,0-.32.14-.37-.11-.4a.8.8,0,0,0,.17-.51v-.67l.06-.15,0-1,.06-1a1.56,1.56,0,0,1-.1-.75l.06-.6-.06-.22.1-.91.23-.09.15-.06.08,0,.09.32.21.17-.15.21v.08a.59.59,0,0,0,.07.24c0,.22-.06.33-.14.33l.05.11a3.59,3.59,0,0,0,.11.84l-.16.52.12.17a1.53,1.53,0,0,0-.22.77.22.22,0,0,0,.17.24l-.13.38a.81.81,0,0,1,.07.23.67.67,0,0,1-.07.27l0,.23-.1.65v.3a3.81,3.81,0,0,1-.17.63l.1.42-.06.77-.11.07.13.25-.09.38-.08.6.08.14-.08.06a.71.71,0,0,1,.13.48.63.63,0,0,1-.09.23l.09.23,0,.3.09.22,0,.16.22.66.24.09a1.55,1.55,0,0,1,.46-.17l.12,0,.27-.24a.55.55,0,0,1,.24-.1.4.4,0,0,1,.35-.2l.09-.11.15,0,0-.1.19,0,.19-.14.2-.06.19-.18a1.42,1.42,0,0,1,.3-.24c0-.06.05-.11.13-.15a.09.09,0,0,0,.08,0A.39.39,0,0,0,137.28,115.51Z"/><path class="cls-4" d="M149.75,116.63l-.1.21a1.12,1.12,0,0,1-.16.67c-.16.13-.24.24-.24.32s-.1.21-.18.36l-.17.15a.54.54,0,0,0-.17.27l-.66.35a2.9,2.9,0,0,1-.7.13l-.3-.15h-.24l-.2-.15-.22,0-.72-.38-1.6-1.46-.4-.62-.32-.29a3.16,3.16,0,0,0-.31-.44,2.63,2.63,0,0,1-.39-.44,1.15,1.15,0,0,0-.54-.44l-.38-.76a4.57,4.57,0,0,1,.14-.61l.38.26.22.24a6.76,6.76,0,0,0,.6.42h.26l.11.09.19,0a.53.53,0,0,1,.23.06,1.72,1.72,0,0,1,.56-.24A4.3,4.3,0,0,0,145,114l.1-.19h.45a.16.16,0,0,1,.11-.14l.12-.06h.06c.2,0,.34-.16.42-.49a3.08,3.08,0,0,0,.36-.2l.13-.13a1.92,1.92,0,0,0,.27-.44h0c.13,0,.26-.25.4-.74h.1l0-.15,0-.33,0-.34c0-.15-.2-.32-.58-.5a.29.29,0,0,0-.26-.18h-.06l-.12-.1-.86-.09a4.68,4.68,0,0,0-.54-.07,1.63,1.63,0,0,0-.8.29,2.37,2.37,0,0,0-.52.06l0,0-.23.06-.21.09-.23.14a.89.89,0,0,1-.24.12l-.26.1-.7.58-.7.76v.13l-.33.67-.17.44a1.69,1.69,0,0,0-.32.82.49.49,0,0,0,.08.25c0,.12,0,.19-.1.23a.73.73,0,0,0-.14.42l0,.17a.81.81,0,0,1-.06.31,1.15,1.15,0,0,0-.22.34l.09.36-.09.42.05.3a1.26,1.26,0,0,0-.15.62v.11a.54.54,0,0,1,0,.15q0,.24-.36.33c-.12,0-.2-.16-.26-.38l-.07-.25.05-.34-.05-.79.05-.17v-.76l0-.27V115c0-.35,0-.66,0-.93s0-.4,0-.41v-.32l0-.19v-.55l.06-.22-.06-.28.06-.69v-.82l-.06-.27.1-.18,0-.22-.06-1.14-.14-.67v-.15l.1-.74-.08-.33,0-.49c0-.19,0-.31,0-.39,0-.26.16-.4.46-.4l.06.15.12-.07,0,.32.1.57-.14.6,0,.78.1.32-.06.31,0,.55-.08.42.1.4-.06.14.1.28-.06.5-.08,1.41a1.93,1.93,0,0,1,0,.31l0,.28,0,.38a.92.92,0,0,1-.08.38.92.92,0,0,0,.28.2l.24-.5,0-.1a5.52,5.52,0,0,1,.39-1,5.19,5.19,0,0,1,.83-1.38c.09,0,.14,0,.14-.1a.18.18,0,0,0,0-.09,4.14,4.14,0,0,0,.55-.36.92.92,0,0,1,.15-.14l.17-.11.16-.07a.31.31,0,0,0,.14-.07l.2-.13a2.55,2.55,0,0,1,.41-.17,1.2,1.2,0,0,1,.83-.32l.77-.1,1.4.1.22.12a1.17,1.17,0,0,0,.34.1,7.66,7.66,0,0,0,.78.71.24.24,0,0,0-.06-.11l.29.64-.05.16a.51.51,0,0,1,.14.32.83.83,0,0,1-.22.44v.17l-.22.69-.3.44-.14,0a.53.53,0,0,1-.16.25.69.69,0,0,0-.16.24.55.55,0,0,0-.4.23.29.29,0,0,0-.22.21.73.73,0,0,0-.46.31l.06,0h0a10.68,10.68,0,0,1-1.87.68.74.74,0,0,0-.3-.11c-.11,0-.16.08-.16.23v0l0,.09.16.19.07.29c0,.14.13.25.33.34l.34.69.52.32,0,.1.22.12.08.2.12,0,.6.6.75.3.45.14.39,0,.17-.08a1.85,1.85,0,0,0,.61-.24,2.76,2.76,0,0,0,.31-.22l.36-.68.15-.19a1.23,1.23,0,0,0,.17-.39.5.5,0,0,1,.16,0A.19.19,0,0,1,149.75,116.63Z"/><path class="cls-4" d="M162.43,114.91c0,.1-.06.21-.24.31l0,.07c0,.07-.09.2-.27.42a.94.94,0,0,0-.26.48l-.22.06a.43.43,0,0,1-.36.48c0,.07-.05.11-.1.11h0a.21.21,0,0,1-.23.17l-.12.23-.28.06-.23.16-.13.05-.44.08-.16,0-.14,0-.06-.08-.18,0-.22-.29h-.1a.29.29,0,0,1-.08-.21,1,1,0,0,1-.32-.55v-.15l-.14-.27v-.11l.1-.06-.08-.29-.14-.36,0-.53-.21-.33v-.49a13.93,13.93,0,0,1-.28-1.78V112a.85.85,0,0,1,0-.22c0-.06,0-.1,0-.12a1.31,1.31,0,0,1-.24-.56l-.09-.09-.42.44-.21.29-.7.84-.28.49a3.7,3.7,0,0,1-.23.48,2.46,2.46,0,0,1-.39.44l.06.19-.14.38-.16,0v.17h-.1l-.38.46c0,.22-.1.35-.26.38a1.18,1.18,0,0,0-.15.37c-.05.17-.12.25-.23.26l-.08.08a2.89,2.89,0,0,1-.34.49,4.32,4.32,0,0,1-.46.39c0,.22-.12.35-.24.4l0,.09a.49.49,0,0,1-.1.26.88.88,0,0,1-.48.22c-.09,0-.17-.12-.22-.33s-.13-.34-.24-.38l0-.13.15-.25,0-.25.1-.09-.1-.18,0-.24-.15-.44.13-.27-.08-.27a1.92,1.92,0,0,0,.14-.82v-.11a.69.69,0,0,0-.12-.23.34.34,0,0,0,.16-.25l0-.31.12-.76-.08-.15,0-.31-.1-.18.08-.64,0-.22.06-.37-.06-.51.14-.27a1.52,1.52,0,0,1,.39.15.32.32,0,0,1,0,.18,4.4,4.4,0,0,1,0,.45l.16.27-.06.38.08.82-.13.44,0,.52v.24l-.18.29.13.42a2.1,2.1,0,0,0-.15.55l.1.23a2.62,2.62,0,0,0-.16.79l0,.72.06.1.24-.12h.2l.11-.44a.38.38,0,0,0,.27-.23c0-.15.12-.23.3-.23a.42.42,0,0,1,.14-.3s.11-.1.18-.29a1.61,1.61,0,0,0,.33-.42v-.27h0s.11-.05.18-.14a.3.3,0,0,1,.25-.14.86.86,0,0,1,.18-.36l.28-.35.26-.55a.87.87,0,0,1,0-.21.05.05,0,0,1,.06-.06c.26-.17.4-.34.4-.51v-.25q.3-.12.3-.21a.26.26,0,0,0,0-.11.33.33,0,0,1,0-.1c0-.06,0-.09.08-.09a.27.27,0,0,1,.16.05c.09-.35.24-.53.45-.53a.54.54,0,0,1,.17,0,.6.6,0,0,1,.18-.46c0-.09.18-.19.47-.31l.09-.15h.08a1,1,0,0,0,.28.28l0,.14.1,0,0,.38.26.15-.08.35.14.62v.58l.14.68.06.71.2.67,0,.66.1.19a1.26,1.26,0,0,1,.14.45l.08,0v.31l.18.19,0,.15.14.08v.1a.68.68,0,0,0,.32.11.52.52,0,0,0,.3-.08.22.22,0,0,0,.1,0q.09,0,.18-.15c.18,0,.28-.07.28-.16v0a.91.91,0,0,1,.4-.19,1.26,1.26,0,0,1,.2-.2v0a.28.28,0,0,1,.07-.11,1.79,1.79,0,0,1,.19-.18.56.56,0,0,0,.18-.21l.11-.21c.09-.12.21-.31.38-.57l.28-.13h.18Z"/><path class="cls-4" d="M170.52,117.77l-.29.14-.06.17a2.09,2.09,0,0,0-.3.11l-.1-.07-.14.07-.31-.38v-.44l-.15-.13,0-.61-.12-1.28.08-.42-.14-.23.18-.09-.12-.18,0-.18.1-.08,0-.25h.11v-.4l0-.19a.47.47,0,0,1-.18-.19l-.31.15a.82.82,0,0,1-.27.32l0,.22-.22.09,0,.29-.14.09v.15a.93.93,0,0,0-.28.35l-.14.09-.3.54-.48.48-.15.26-.42.44-.11.23-.58.4-.64.77-.22,0a1.17,1.17,0,0,0-.3.21h-.06c-.11,0-.2-.11-.26-.32-.5-.2-.77-.48-.79-.84l.15-.1a2.57,2.57,0,0,1-.15-.78l-.11-.08.07-.11a.81.81,0,0,0,.06-.2c0-.09,0-.22,0-.39l.14-.75a.35.35,0,0,1,0-.13.53.53,0,0,1,.06-.23.73.73,0,0,1,0-.21.68.68,0,0,1,0-.21l.08,0a.66.66,0,0,0,.16-.38.2.2,0,0,0-.06-.15.21.21,0,0,1-.06-.08c0-.05,0-.08.1-.1-.09,0-.14-.06-.14-.13s.07-.09.2-.09v0a.64.64,0,0,1,.13-.4.84.84,0,0,0,.13-.25l-.14,0,.26-.42v-.09a1.09,1.09,0,0,1,.28-.73l0-.36.09-.06a.26.26,0,0,1-.07-.19s0-.06.12-.06V110c.07,0,.1-.05.1-.1a.18.18,0,0,0,0-.11,3.32,3.32,0,0,1,.28-.32,2,2,0,0,0,.28-.39h.06c.15,0,.22,0,.22-.11a.18.18,0,0,0-.06-.1q.4,0,.42-.15l.37-.19,1,.09v.08l.84.17h.08c.12,0,.18.06.18.17l.1,0a.22.22,0,0,0,.23.18l.09,0,.18.17.42.11v.18a3,3,0,0,1,.72-.33v.33h-.1l.2.09,0,0,.16.51-.18.2-.08.33a1.25,1.25,0,0,1-.18.41l.12.25-.11.16a.8.8,0,0,0-.09.45.1.1,0,0,1,.06.1l0,.16,0,.14-.06.21,0,.19-.12.14,0,.43-.06.06.06.09-.06.06a.13.13,0,0,1,0,.08.27.27,0,0,1-.06.17l.06.13-.1.18c-.05,0-.07.12-.07.28l.07.25-.18.25a.76.76,0,0,0,.18.26,2.4,2.4,0,0,0-.24.77l.17,0,0,.11a.33.33,0,0,1,0,.14.87.87,0,0,1-.15.4h.13l.06.3.4,0,.13.25s-.06,0-.06.07.07.12.2.2h0s0,0,0,0S170.41,117.68,170.52,117.77Zm-1-7.19-.12-.36-.32-.1-.56-.49a.35.35,0,0,0-.2-.08.45.45,0,0,0-.16,0l-.09-.1h-.33l-.09-.13-.23.09-.1-.09-.16,0-.31,0a2,2,0,0,0-.71.23l0,.08-.17,0,0,.08-.23,0V110a1.72,1.72,0,0,0-.46.63,6.39,6.39,0,0,1-.36,1l.16.08-.26.22.08.16a1,1,0,0,0-.17.61v.11l-.15.22v.34a.72.72,0,0,0-.18.36l-.07.08v.36l-.07.1a2.72,2.72,0,0,1-.08.53l.11.25a.73.73,0,0,0-.29.24l.08.16-.12.15.16.4-.18.25,0,.48-.05.22.09.06,0,.14a.68.68,0,0,1,.29.22l.45-.11a.5.5,0,0,1,.44-.31l0-.15.31-.08s0,0,.05-.11a.4.4,0,0,1,.17-.21h0s.06,0,.06-.07l.36-.42h-.08l.22-.2a.87.87,0,0,1,.32-.18l.15-.39a.63.63,0,0,0,.42-.42h.11l.2-.25,0-.17.19,0a.22.22,0,0,1,0-.1.85.85,0,0,1,.13-.22c.09-.13.17-.23.22-.32l.09,0a.48.48,0,0,1,.21-.36.44.44,0,0,1,.16-.25.37.37,0,0,1,.16-.09h.14l0-.25a.09.09,0,0,0,0-.08.17.17,0,0,0-.06-.11,1.11,1.11,0,0,1,.28-.36l0-.22.14-.11,0-.17a1.07,1.07,0,0,0,.15-.36l.17-.18Zm-2.84-3.89-.06.06,0,.22-.1.06v.14c-.08,0-.2.14-.38.36a1.13,1.13,0,0,0-.36.06.85.85,0,0,1-.21,0s0,0-.06-.08a.11.11,0,0,0-.11-.09h0c0-.07,0-.1-.08-.1h0l-.11-.07,0-.1-.07-.07,0-.12-.18-.28c0-.15.06-.26.07-.32s.1-.14.25-.24a1,1,0,0,0,.31-.28l.17,0a.59.59,0,0,1,.41.19.81.81,0,0,0,.37.22Zm3.3.24-.13.31-.23.13a.53.53,0,0,1-.29.22,3.57,3.57,0,0,0-.41.13,3,3,0,0,0-.36-.32.91.91,0,0,1-.23-.19s0-.15-.05-.39l.18-.21,0-.13.08-.08,0-.09c.07,0,.11-.06.11-.1l.09,0a0,0,0,0,0,0,0v0h.06c.05,0,.08,0,.1-.09s0-.1.09-.1a1.08,1.08,0,0,0,.53.13c.15.21.28.33.37.35v.15l.11.06,0,.21Z"/><path class="cls-4" d="M182.6,117l.32,0c.14,0,.21,0,.21.16s-.07.19-.21.3l-.15.08-.1.1a1.24,1.24,0,0,1-.34.22l-.32.1c-.08.08-.3.11-.65.11a1.47,1.47,0,0,1-.3-.07,1.35,1.35,0,0,1-.31-.14l-.65-.59-.15-.61-.2-.19v-.09a1,1,0,0,0-.13-.52l0-.48c.05-.24.08-.38.08-.42a.88.88,0,0,0-.12-.44l.06-.9-.23.12-.13.21-.19.13a.67.67,0,0,0-.2.23l-.17,0a.56.56,0,0,0-.23.4.64.64,0,0,0-.37.35,1.29,1.29,0,0,1-.3.46,1.11,1.11,0,0,1-.34.28.35.35,0,0,0-.19.12l-.57.7h-.06l-.47.56-.37.2-.17.25a6.87,6.87,0,0,0-.82.35l-.3-.2-.14,0c-.08,0-.11,0-.11-.11a.31.31,0,0,1,0-.11l-.2-.12a.4.4,0,0,1,.07-.21l-.27-.25.16-.21h-.21l-.15-.38.15-.11-.19-.27c0-.32,0-.49.07-.51v-.35a1.45,1.45,0,0,1,.11-.42l-.17-.11a.72.72,0,0,0,.17-.38,1,1,0,0,0-.1-.33c.08,0,.12-.14.12-.31s0-.15,0-.26l-.08-.67.23-1.39a4.18,4.18,0,0,0-.1-.76l-.07-.35c0-.21.11-.31.34-.31l.29.08.15.17-.09.42,0,1,0,.64-.14.32.08.19-.08.31v.26a.09.09,0,0,0,0,.12.53.53,0,0,1,0,.13.39.39,0,0,1-.07.23l.13.17-.19.25.11.17,0,.27,0,.32v.38l.12.14-.1.48a.65.65,0,0,0,.12.3l-.06.21.1.29a1.86,1.86,0,0,1,.42.38.67.67,0,0,0,.38-.2,3.23,3.23,0,0,1,.42-.34s0,0-.08,0c.22-.1.32-.2.32-.32a1.31,1.31,0,0,0,.33-.08l0-.24.19-.08a1.09,1.09,0,0,1,.67-.38v-.2l.37-.3a.4.4,0,0,1,.42-.4l.07-.27.18-.07.26-.38h.12v-.12l.19-.1.11-.28.48-.23.08-.21.15-.06v-.13l.07,0c0-.32.15-.48.35-.48l-.06,0,.37-1.11h.09v-.27h0a2.14,2.14,0,0,0,.34-.72l.35,0,0,.08.21.38-.17.74-.29.44-.21.74-.25.18V113l-.15.28,0,.32-.14.14,0,.88-.08,1.08.06.12,0,.15h.06v.31a1.6,1.6,0,0,1,.32.59l.29.07.06.18a4.22,4.22,0,0,1,.47.22l.27,0,.21.06.32-.13A2.28,2.28,0,0,0,182.6,117Z"/><path class="cls-4" d="M190.07,116.15a.8.8,0,0,1,.14.33.89.89,0,0,1-.18.33,2.31,2.31,0,0,0-.28.54l-.14,0-.22.42-.24,0-.54.36-.1.22-.16,0-.18.2h-.28l-.06.1-.14,0a.49.49,0,0,0-.38.19l-.12-.09a.9.9,0,0,1-.34.09.64.64,0,0,1-.36-.09l-.26,0-.12-.1a.87.87,0,0,1-.72-.3v-.25l-.32-.17-.08-.21a.87.87,0,0,0-.22-.25v-.16l-.22-.95,0-.67.08-.38v-.42l.1-.36,0-.27a.33.33,0,0,0,.14-.22,1.28,1.28,0,0,1,.12-.29c0-.12-.05-.29-.08-.5l.18-.15-.18-.19a.94.94,0,0,0,.14-.29l-.1-.59a1.42,1.42,0,0,1,.06-.42.31.31,0,0,0,.26.17,2.06,2.06,0,0,0,.38-.07.59.59,0,0,1,0-.14.31.31,0,0,1,.16-.25,3.48,3.48,0,0,1,.44-.91.49.49,0,0,0,.18-.4h.1l.1-.2.12,0a.72.72,0,0,1,.2-.29,1.36,1.36,0,0,0,.54-.46.54.54,0,0,0,.17,0,.71.71,0,0,0,.15-.22l.36-.12a.24.24,0,0,1,.18.12l.18,0,.1.07h.12a.4.4,0,0,0,.4.33h.06a.31.31,0,0,0,.12.2l-.08,0c.22.11.34.37.34.77l-.06.23.06.55-.1.09-.22.6-.4.5,0,.28a6,6,0,0,1-1.18.8q0,.12-.12.12l-.16,0-.44.3h-.26l-.38.18-.17-.1a1.43,1.43,0,0,0-.41-.08,1,1,0,0,0-.3.73l-.14.17a1.88,1.88,0,0,1-.1.52l-.1.05.1.73-.1.09,0,.23,0,.27a2.15,2.15,0,0,0,.05.37c0,.21.08.32.15.36s0,.2.19.33a1.4,1.4,0,0,0,.51.27v.12l.52.08.74,0,.5-.06a2.34,2.34,0,0,1,.44-.27l.16-.23h.18l0-.1a1.74,1.74,0,0,0,.48-.2.14.14,0,0,0,0-.1.19.19,0,0,1,.18-.12l.06-.13a.63.63,0,0,0,.54-.57A.41.41,0,0,1,190.07,116.15Zm-1.64-4.56s.14-.09.26-.24l.06-.24a3.71,3.71,0,0,0,.28-.52.79.79,0,0,0,0-.28,2.41,2.41,0,0,0-.14-.59l-.4-.13-.2,0-.12,0c-.1,0-.16.06-.2.17a1.58,1.58,0,0,0-.54.15l-.06.14a.12.12,0,0,0-.08,0h-.05s0,0-.05,0l0,0,0,.06,0,.09,0,.08a.86.86,0,0,1-.12.18l-.15.17-.28.54-.15.13a.42.42,0,0,0-.1.25,4.92,4.92,0,0,1-.53.94l.14.07.06.17.34.1a1.79,1.79,0,0,1,.6-.27l.06-.11.16,0a.24.24,0,0,0,.18-.12l.24,0,.14-.24h.14l.1-.22a.71.71,0,0,0,.5-.24Z"/><path class="cls-4" d="M196.4,115.51a.22.22,0,0,1,.13.18c0,.16,0,.25-.13.27-.15.26-.31.39-.47.39a3,3,0,0,1-.66.66.58.58,0,0,0-.26.11l-.27.25a.37.37,0,0,0-.36.24l-.19,0-.08,0-.06.17H194a1.19,1.19,0,0,0-.42.12,2.12,2.12,0,0,1-.34.13l-.2.08h-.14l-.12-.17-.18-.16a1.85,1.85,0,0,0-.31-.53l-.06-.48,0-.23-.09-.13,0-.57,0-.5,0-.24a.29.29,0,0,0,.05-.16.75.75,0,0,0-.13-.36c0-.56.08-.86.08-.92a.58.58,0,0,0-.16-.36l.16-.08.05-.76,0-.32.14-.37-.11-.4a.75.75,0,0,0,.17-.51v-.67l.06-.15,0-1,.06-1a1.56,1.56,0,0,1-.1-.75l.06-.6-.06-.22.1-.91.23-.09.15-.06a.18.18,0,0,1,.08,0l.1.32.2.17-.15.21v.08a.59.59,0,0,0,.07.24c0,.22-.06.33-.14.33l.05.11a3.59,3.59,0,0,0,.11.84l-.16.52.12.17a1.53,1.53,0,0,0-.22.77.22.22,0,0,0,.17.24l-.13.38a1,1,0,0,1,.08.23.72.72,0,0,1-.08.27l0,.23-.1.65v.3a3.81,3.81,0,0,1-.17.63l.1.42-.06.77-.11.07.13.25-.09.38-.07.6.07.14-.07.06a.77.77,0,0,1,.12.48.63.63,0,0,1-.09.23l.09.23-.05.3.09.22,0,.16.22.66.24.09a1.66,1.66,0,0,1,.46-.17l.12,0,.27-.24a.62.62,0,0,1,.24-.1.4.4,0,0,1,.35-.2l.09-.11.15,0,0-.1.2,0,.18-.14.2-.06.19-.18a1.42,1.42,0,0,1,.3-.24c0-.06.05-.11.13-.15a.09.09,0,0,0,.08,0A.35.35,0,0,0,196.4,115.51Z"/><path class="cls-4" d="M110.34,146.13h.52a1.53,1.53,0,0,1,.32-.07.16.16,0,0,1,.18.18c0,.09-.07.14-.2.14h-.08l-.29.15-.35-.11-.5.28-.22-.11a.66.66,0,0,0-.32-.07l-.25,0a1,1,0,0,1-.25,0h0l-.24,0-.42.15-.18,0-.08.06-.92,0-.24,0-.08.14-.32-.1-.21.11a1.24,1.24,0,0,1-.41,0l-.28-.06a1.2,1.2,0,0,0-.38,0,4.12,4.12,0,0,1-.64.08l-.18.19-.12,0a.49.49,0,0,0-.06.27,2.88,2.88,0,0,0,.3.93l-.16.46.16.12-.16.24c.11,0,.16.09.16.22l-.1.4-.06.8,0,.3.72.1.54-.14.18.1a1.55,1.55,0,0,0,.46,0,.36.36,0,0,0,.3-.14l.38-.09.46.17a4.36,4.36,0,0,1,.55-.1,1,1,0,0,0,.33-.07l.24.09.32-.09.18.11a2.88,2.88,0,0,0,.53,0l.15,0,.18,0,.15,0a.25.25,0,0,0,.21-.13l.5-.05.2.05.14,0,.21.07h.11l0,.11a1.22,1.22,0,0,0-.56.24h-.28l-.18.12-.46-.05-.39.14a3.16,3.16,0,0,1-.61.13l-.32-.1-.08.1-.6-.08-.24.12-.36,0-.28.07a2.51,2.51,0,0,1-.46.06h-.14a.76.76,0,0,0-.32.11l-.22-.15h-.1a2,2,0,0,0-.58.2l-.38-.06-.16.06-.28-.06c-.08,0-.17.39-.24,1.15a5.35,5.35,0,0,1,0,.61.47.47,0,0,1,.08.32l-.22.64.12.24-.14.25.06.33-.08.15a.49.49,0,0,1,0,.15,4.07,4.07,0,0,1-.15.85c-.11.4-.2.8-.29,1.21l-.22-.13H103l0-.23V157l.1-.09,0-.25a1.42,1.42,0,0,1,.14-.43l-.14-.11v-.21l-.1-.1.16-.3-.18-.06a2.35,2.35,0,0,1,.11-.35,1.48,1.48,0,0,0,.07-.22v0l-.08-.1,0-.14-.06-.3.12-.32-.06-.79.14-.78-.08-.31v-.36a.26.26,0,0,0-.16-.23l-.54.23-.4-.23-.38.06a.2.2,0,0,1-.12,0c-.09,0-.14-.09-.14-.27a.62.62,0,0,1,.09-.38.53.53,0,0,1,.41-.12l.46,0,.6.06h.14c.16,0,.27-.11.32-.34l-.1-.27v-.93l-.1,0,.08-1.09-.22-.59,0-.4-.56-.27-.46.31-.18-.26a.26.26,0,0,1-.22-.18.51.51,0,0,1,.61-.67.66.66,0,0,1,.35-.15l.56.05h.38l1-.06.68.09.68,0,.17-.09.09,0,.12,0,.1,0h0l.76-.12,0,.12a.17.17,0,0,1,.14-.1c.06,0,.13.05.22.16l.14-.06.52-.06h0l1.17.15a2.22,2.22,0,0,1,.57-.07A.44.44,0,0,1,110.34,146.13Z"/><path class="cls-4" d="M115.32,143.72a.71.71,0,0,1-.35.33v.13l-.17.2c-.06.07-.11.11-.16.11l-.11,0-.53.65-.14.21-.48.15-.24.36-.23.1a2.5,2.5,0,0,0-.44.38l-.11-.08,0-.24.46-.21c.06-.32.15-.51.25-.55s.15-.07.15-.08v-.08l.09-.06,0,0,0-.15h.08l-.08-.17h.32v-.28l.14,0,.1-.16.16-.06.14-.26q.08,0,.12-.12h.12l0-.2a.73.73,0,0,0,.24-.4A.78.78,0,0,1,115.32,143.72Zm2,10.06,0,.2-.19.13-.07.25-.28.08a.93.93,0,0,1-.28.49l-.24.09-.22.24a1.45,1.45,0,0,0-.34.36h-.14a.57.57,0,0,1-.44.22l-.24.31a1,1,0,0,1-.38.15,2.16,2.16,0,0,0-.29.06l-.07.12h-.33l-.17.13-.5-.37-.28-.64,0-1-.06-.2.19-1.64.13-.1-.06-1a.93.93,0,0,1,.06-.34,4,4,0,0,0,.1-.45l.08-.05a1.28,1.28,0,0,0-.14-.55l.08-.27v-.37l.1-.12c0-.1,0-.2-.07-.32s0-.19,0-.2,0-.16.08-.16a.05.05,0,0,0,0,0,1.54,1.54,0,0,1-.14-.4c0-.1.05-.15.14-.15a.33.33,0,0,1,.13.06.37.37,0,0,0,.15.05l.1,0c0-.11,0-.16.13-.16s.13,0,.14,0,0,.16,0,.38l.21.09-.17.23-.21,1.28.17.32a.46.46,0,0,1-.19.38l0,.25,0,.23-.23.82,0,.1-.1.66v.48l-.15.32,0,.28,0,.45a2.09,2.09,0,0,0,.17.9l0,.11.18.12.2-.06.24.1.28-.14a.9.9,0,0,1,.34-.15l.14-.13,0,.06.11-.16.21-.06a1.1,1.1,0,0,1,.5-.26.33.33,0,0,1,.28-.16l.12-.18.22,0,0-.22h.09l0-.11.42-.21,0-.25.38,0Z"/><path class="cls-4" d="M125.31,154.87l-.14.16a6.21,6.21,0,0,0-.26.61l-.29.2,0,.12h-.26l-.26.28h-.34l-.22.12a.33.33,0,0,0-.22.12.58.58,0,0,0-.26-.06.65.65,0,0,0-.25.06v.11l-.37,0-.28,0-.26,0,0,.06-.1-.06-.17.06h-.13a1,1,0,0,0-.29,0l-.21-.07-.16.11-.07-.09-.15.09a.89.89,0,0,0-.42-.15.46.46,0,0,0-.18.06.89.89,0,0,0-.34-.08l-.44-.05a1,1,0,0,0-.32,0l0-.08-.17.11a.18.18,0,0,0-.15-.07l-.06-.12c-.41,0-.62-.31-.62-.88l.42-.06v-.14l.09-.14.06.12h.12v.09l.18-.09c.11,0,.16.06.16.14a.46.46,0,0,1-.06.18l.18,0v.3l.51.08.19.17.06-.09,2.56-.16.88-.17,0-.09.21,0,.06-.08a2.28,2.28,0,0,0,.8-.32l.06.06,0-.12.14-.12,0-.07-.09-.13,0-.18-.23-.19,0-.15a.38.38,0,0,1-.19-.12l-.09,0-.2-.19h-.08l-.08-.11h-.2a.21.21,0,0,0-.22-.16l-.14,0a1,1,0,0,1-.6-.2h-.2l-.25-.16-.13.08-.06-.1h-.14l-.22-.19-.6-.25-.22-.2-.68-.12v-.06l-.57-.4-.26-.65-.2-.31-.06-.93.06-.09a1.24,1.24,0,0,1,.2-.69q.38-.21.39-.42l.13,0a1.11,1.11,0,0,1,.37-.48l.25-.21,1.16-.5.59-.11.57-.17.9.06,0,.11h.06a.33.33,0,0,1,.26.11v.18l.25.17a3.83,3.83,0,0,0-.11.53.16.16,0,0,1-.18.18s-.14-.14-.28-.42l-.54,0-.13,0a1.33,1.33,0,0,0-.37-.24s0,0,0,.06l-.19.14a3.76,3.76,0,0,0-1,.42H121l-.17.12a1.23,1.23,0,0,1-.39.14l-.07.1-.11.06-.27.26-.19.29c-.19.13-.29.21-.29.25l-.21.82.1.06v.06a.68.68,0,0,0,.32.56v.1l.54.32h.13l.29.29h.4l.24.21.46.06.14.12.86.26c0,.08.05.12.14.12a.94.94,0,0,1,.45.11,1.2,1.2,0,0,0,.39.15l0,.1.18.1h.38l.34.22a.67.67,0,0,0,.27.36l0,.06.09.14.18,0-.08.14A.67.67,0,0,1,125.31,154.87Z"/><path class="cls-4" d="M133.92,153.23l-.31.35a1.56,1.56,0,0,1,0,.27.65.65,0,0,1-.07.21.9.9,0,0,1-.15.19,2.65,2.65,0,0,0-.19.34,2,2,0,0,1-.24.37,2.08,2.08,0,0,1-.27.32,3,3,0,0,1-.34.25,2.18,2.18,0,0,0-.49.35l-.17,0a2.25,2.25,0,0,0-.37.24l-.22,0-.46.35-.16-.1-.42.19-.4-.09-.11.14-.25,0-.23,0-.07-.07-.27-.05a.54.54,0,0,1-.29-.12l-.32-.27-.29-.44a.74.74,0,0,1-.21-.53v-.08l-.21-.34v-.31l-.09-.11,0-.4-.08-.33.13-.31-.09-.14.2-.33,0-.42,0-.17a.79.79,0,0,1,.19-.4l0-.46.15-.12-.06-.13.13-.19a6.83,6.83,0,0,1,.42-1.26l.35-.34.09-.25.16-.27a1.09,1.09,0,0,1,.2-.44.59.59,0,0,0,.41-.17c0-.22.18-.33.59-.33a1.92,1.92,0,0,1,.38.1.57.57,0,0,1,.38.32c.2,0,.31.07.31.22l.57,0,0,.18.12.14,0,.23.15.19,0,.25,0,.15,0,.4.09.14v.2l.06.42-.4.22-.42-.5,0-.65-.08-.23v-.24l-.23-.29a1.78,1.78,0,0,0-.45-.35l-.27.12H130a.94.94,0,0,0-.42.16,1.78,1.78,0,0,0-.46.58,1.71,1.71,0,0,1-.42.56l0,.28-.16.14v.4l-.2.26-.07.27a1.88,1.88,0,0,0-.17.47.52.52,0,0,1-.1.28l0,.32-.17.42,0,.3-.07,0,0,.76,0,0,0,.18-.09.08.29.34a1,1,0,0,1,.11.32l-.06.06.21.28.15.06,0,.2,1.07.24a.36.36,0,0,1,.25-.15l.21,0a.54.54,0,0,1,.27-.13l.14,0a.42.42,0,0,0,.14-.08.88.88,0,0,1,.38-.09c.11-.23.25-.34.42-.34a.37.37,0,0,1,.16,0c.34-.15.51-.27.51-.38a.41.41,0,0,1,.42-.22h.07c.55-.6.81-.93.79-1a1.2,1.2,0,0,0,.34-.55l.17-.12,0-.26C133.87,152.77,133.92,153,133.92,153.23Z"/><path class="cls-4" d="M143.21,156.3a1.69,1.69,0,0,1,0,.25c0,.31-.15.46-.44.46s-.33-.16-.4-.49l-.14-.62v-.19a2.92,2.92,0,0,0,0-.33.92.92,0,0,0-.21-.52l.14-.33-.08-.48.08-.23v-.32l.05-.29-.09-.31.09-.18V152l0-.95-.15-.64.08-.26-.17-.76v-.25l-.33-.13-.36.33-.19.13-.35.14-.55.8-.23.06-.49.82v.1h-.14l-.06.17-.22.21a1,1,0,0,0-.18.38l-.21.69-.3.39a1.36,1.36,0,0,0-.14.34l-.19.18-.09.52-.42.4,0,.56h-.08l-.13.38-.32.57a3.54,3.54,0,0,0-.46.59l-.1,0h-.13l-.06-.11-.17-.67,0-1.1-.06-.33.06-.4,0-.69.1,0,.13-1.7.06-.32,0-.24.11-.06,0-.14.09-.7.1-.29-.06-.29.06-.15-.06-.11.06-.67-.1-.09.06-.14,0-.76-.13-.34h.13v-.18l-.19-.82V146l-.08-.19-.09-.63a3.7,3.7,0,0,0-.33-.82L136,144l0-.06c.16,0,.23.08.23.24l.29.26.08.23a1.05,1.05,0,0,0,.24.33l-.05.18.13.36-.13.17.19.15,0,.52,0,1,.11.51-.07.22,0,.38-.08.32.06.5-.14.5.08.13,0,1.22,0,.19-.08.1-.09.74-.1.21.08.25,0,.12,0,.66-.19.58c.14.17.21.28.21.34l-.15.28a1.14,1.14,0,0,1,.09.48l.19-.15.08-.25.31-.65.15-.45a.42.42,0,0,0,.32-.42,1.76,1.76,0,0,0,.29-.48l.09-.26a1.12,1.12,0,0,1,.2-.32v-.26l-.05-.06.13-.12,0,.06.32-.4a.25.25,0,0,0,.16-.24V151c.18,0,.26-.15.26-.36l.06,0v-.1l.17,0,0-.26h.14l0-.16h.13v-.13a.54.54,0,0,1,.17-.09s0,0,0,0v0l0-.17h.06c.15,0,.23-.13.23-.38l.24-.2,0,.08a.79.79,0,0,0,.19-.4l.14-.06.05-.17H141a.41.41,0,0,1,.23-.11l.15,0,0-.08a1.79,1.79,0,0,1,.5-.22c.09,0,.19.08.32.26a.16.16,0,0,1,.15.18l.18.14a2,2,0,0,0,.32.68V151l0,.82.08.19v1.47l0,.26v.5l0,.42-.08.5a1.39,1.39,0,0,1,.12.59l.19.25v.24Z"/><path class="cls-4" d="M154.63,153.92l-.16.76,0,.18-.08.09a.89.89,0,0,1,.11.43l0,.2,0,.4a6.45,6.45,0,0,1-.09,1c-.06.38-.1.64-.11.77l0,.29a2.6,2.6,0,0,1-.21.55h.1l-.05.3L154,159a.77.77,0,0,0-.13.33,2,2,0,0,1-.18.44c-.06.11-.14.25-.24.41a1.9,1.9,0,0,1-.34.39c-.13.1-.3.26-.53.46l-.3.13a.88.88,0,0,1-.36.21l-.1.12-.72.13h0l0,.07a1.6,1.6,0,0,1-.65.12h-.71l-.52-.12-.32.06-.15-.13-.57-.08-.24-.21a4.11,4.11,0,0,0-.5-.32,1,1,0,0,1-.64-.65l.08-.09-.08-.37a.23.23,0,0,1,.18-.09c0-.06.08-.08.11-.08l.23,0,.48.06,0,.2a.56.56,0,0,1,.28.12.32.32,0,0,1,0,.16l0,.1c0,.15.06.24.18.26s0,.13,0,.13l.14.05.84.27.23,0,0,.07h.44a1.15,1.15,0,0,1,.34.07,2.5,2.5,0,0,1,1.05-.22.64.64,0,0,0,.33-.16c.24,0,.39-.08.44-.16h0a.71.71,0,0,0,.2,0,.61.61,0,0,0,.16-.12l.67-.7.38-.58,0-.26.22-.33,0-.29.11-.24.12-.6.16-.58,0-.42v-.16a1.54,1.54,0,0,1,.14-.72l-.12-.44v-1l-.14-.38v-.6l-.18-.42,0-.68-.24-.74a.2.2,0,0,0-.14-.06c-.08,0-.17.07-.26.2l0,.2-.28.12-.14.38-.26.25-.36.59-.48.34-.56.64-.47.41c-.14.11-.28.23-.43.33a2,2,0,0,0-.26.22l-.09.15a1.39,1.39,0,0,1-.27.2l-.32.15-.18.19a2.18,2.18,0,0,1-.43.27.26.26,0,0,1-.25.14h-.06a1.35,1.35,0,0,1-.88.34l-.28,0-.17.1a1.15,1.15,0,0,0-.42-.1,2.83,2.83,0,0,1-.82-1.2l-.11-.78,0-.5.22-.76,0-.24.08-.33a2.39,2.39,0,0,1,.18-.51,1,1,0,0,0,.12-.49l0-.31.4-.78a.54.54,0,0,1,.12-.14,3.81,3.81,0,0,0,.34-.52l.22-.24a1,1,0,0,1,.32-.47c.12-.06.2-.22.26-.46a.79.79,0,0,1,.41-.17.55.55,0,0,0,.43-.38l.14,0,.36-.26a.48.48,0,0,1,.36-.22l.16,0,.58-.22.37.08h.27l.2.14h.12a2.6,2.6,0,0,0,.39.42,2,2,0,0,1,.37.4,1,1,0,0,1-.13.46h-.31l-.26-.42a1,1,0,0,1-.42-.26l-.1,0a1.2,1.2,0,0,0-.42-.13,1.12,1.12,0,0,0-.68.27l-.14,0,0,.14h-.18l-.26.05c-.07.19-.18.29-.34.29a1.76,1.76,0,0,1-.38.32l-.12.25-.18.05,0,.14H148l-.32.56-.26.18-.12.36-.28.42a1.42,1.42,0,0,0-.06.46l-.22.24-.22.89-.2.23,0,.36-.24.82.08.27,0,.38a.81.81,0,0,1,.15.31.43.43,0,0,0,.21.28l.06.2a.58.58,0,0,1,.26.11.74.74,0,0,1,.28-.06l.2,0,.24,0c.09-.11.41-.19,1-.25l.23-.28a1.08,1.08,0,0,1,.27-.26,2.67,2.67,0,0,0,.33-.22,1.79,1.79,0,0,1,.29-.17c.24-.06.35-.18.35-.37.33-.13.51-.27.55-.42l.16-.05a.68.68,0,0,0,.21-.15,3.92,3.92,0,0,0,.45-.58l.12.08.08-.19.22-.07a.25.25,0,0,1,0-.1.35.35,0,0,1,.12-.25l.14,0a.18.18,0,0,0,.09-.1l.07-.15.38-.5h.08l.06-.4a4.61,4.61,0,0,0,.54-1.28l.14,0-.1-.31-.07-.32a1.07,1.07,0,0,0-.13-.3l-.21-.35.13-.31-.09-.36c.07-.14.14-.2.23-.2a.22.22,0,0,1,.11,0,1.44,1.44,0,0,1,.21.34l.2.09,0,.37.08.26a.64.64,0,0,1,0,.2,2.22,2.22,0,0,0,.08.28.85.85,0,0,1,.07.28s0,.08-.06.08a1.69,1.69,0,0,0,.26.52l-.06.4a1,1,0,0,1,.22.36.32.32,0,0,1-.13.24l.05.26.14.05-.06.27.08.52a1.17,1.17,0,0,1,.1.44l0,0a1.16,1.16,0,0,0-.06.46l.14.11Z"/><path class="cls-4" d="M164.21,148.6l-.06.24-.58.08-.38.28-.26,0-.32.2-.32.14a1.42,1.42,0,0,1-.38.26v.09l-.3.15-.2.32h-.21l-.11.31-.23.15a.5.5,0,0,0-.21.22l-.2.36c-.15.08-.23.25-.26.53l-.1,0,0,.12-.14.1-.14.34a1,1,0,0,0-.22.46l-.18.08v.42a.59.59,0,0,0-.1.21l0,.07-.2.08.06.16a3,3,0,0,1-.3.72l.1.25-.2.33a1.37,1.37,0,0,1,0,.3l0,.32.09.35.09.12.15.15a1.3,1.3,0,0,1-.25.34l-.26-.1,0,.18-.44-.08v-.27l-.06-.17.06-.32-.06-.14,0-.68,0-.46c-.09,0-.14-.08-.14-.12a.58.58,0,0,1,.14-.25v-.29a2.56,2.56,0,0,0,0-.34l.08-.1-.08-.38.06-.3-.06-.19.06-.53-.1-.16.06-.19-.12-.4,0-.31a2,2,0,0,0,0-.36l.06-.1-.12-.68-.14-.1.14-.34a1.14,1.14,0,0,1-.2-.66v-.28a.56.56,0,0,1-.12-.18,1.11,1.11,0,0,1,.5-.33l.15,0a.91.91,0,0,0,.21.47l0,.5.2,1.51a.37.37,0,0,1-.12.27l.1.42-.06.3.06.32,0,.26.14.3-.08.06.06.46.16,0,.07-.4a1.48,1.48,0,0,1,.23-.35.65.65,0,0,0,.26-.49v-.12l.12-.06s0,0,0-.07,0-.08.07-.08h.06l.12-.39.3-.2,0-.12h.14l-.06-.22.3-.14,0-.25.28,0a1,1,0,0,0,.3-.39l.18,0a2.09,2.09,0,0,1,.36-.37.11.11,0,0,0,.1-.05l.32-.18.08-.15.18-.09a1.65,1.65,0,0,1,.7-.39h.08a.41.41,0,0,0,.28-.09l.18.06a.38.38,0,0,1,.22-.1C164.07,148.53,164.2,148.57,164.21,148.6Z"/><path class="cls-4" d="M172,156.24l-.29.14-.06.17a2.09,2.09,0,0,0-.3.11l-.1-.07-.14.07-.31-.38v-.44l-.15-.13,0-.61-.12-1.28.08-.42-.14-.22.18-.1-.12-.18,0-.18.1-.08,0-.25h.11V152l0-.19c-.05,0-.11-.08-.18-.19l-.31.15a.82.82,0,0,1-.27.32l0,.22-.22.09,0,.29-.14.1v.14a.93.93,0,0,0-.28.35l-.14.09-.3.54-.48.48-.15.26-.42.44-.11.23-.58.4-.64.77-.22.05a1.17,1.17,0,0,0-.3.21H166c-.11,0-.2-.11-.26-.32-.5-.2-.77-.48-.79-.84l.15-.1a2.57,2.57,0,0,1-.15-.78l-.11-.08.07-.11a.81.81,0,0,0,.06-.2c0-.09,0-.22.05-.39l.14-.74a.46.46,0,0,1,0-.14.53.53,0,0,1,.06-.23.73.73,0,0,1,0-.21.68.68,0,0,1,0-.21l.08,0a.66.66,0,0,0,.16-.38.2.2,0,0,0-.06-.15.21.21,0,0,1-.06-.08s0-.08.1-.1c-.09,0-.14-.06-.14-.13s.07-.09.2-.09v0a.66.66,0,0,1,.13-.4.84.84,0,0,0,.13-.25l-.14,0,.26-.42v-.09a1.09,1.09,0,0,1,.28-.73l0-.36.09-.06a.26.26,0,0,1-.07-.19s0-.06.12-.06v-.32c.07,0,.1,0,.1-.1a.2.2,0,0,0,0-.11,3.32,3.32,0,0,1,.28-.32,2,2,0,0,0,.28-.39h.06c.15,0,.22,0,.22-.11a.14.14,0,0,0-.06-.09c.27,0,.41-.06.42-.16l.37-.19,1,.09v.08l.84.18h.08c.12,0,.18,0,.18.16l.1,0a.22.22,0,0,0,.23.18l.09,0,.18.17.42.11v.18a2.68,2.68,0,0,1,.72-.32v.32h-.1l.2.09,0,0,.16.51-.18.2-.08.33a1.25,1.25,0,0,1-.18.41l.12.25-.11.16a.8.8,0,0,0-.09.45.1.1,0,0,1,.06.1l0,.16,0,.14-.06.21,0,.19-.12.14,0,.44-.06.05.06.09-.06.06a.13.13,0,0,1,0,.08.27.27,0,0,1-.06.17l.06.13-.1.18s-.07.12-.07.28l.07.25-.18.25a.66.66,0,0,0,.18.26,2.4,2.4,0,0,0-.24.77l.17,0,0,.11a.37.37,0,0,1,0,.14.87.87,0,0,1-.15.4h.13l.06.3.4,0,.13.25s-.06,0-.06.07.07.12.2.2h0s0,0,0,0S171.87,156.15,172,156.24Zm-1-7.19-.12-.36-.32-.09-.56-.5a.43.43,0,0,0-.2-.08.45.45,0,0,0-.16,0l-.09-.1h-.33l-.09-.13-.23.09-.1-.09-.16,0-.31,0a2,2,0,0,0-.71.23l0,.08-.17.05,0,.08-.23,0v.12a1.72,1.72,0,0,0-.46.63,6.39,6.39,0,0,1-.36,1l.16.08-.26.22.08.16a1,1,0,0,0-.17.61v.11l-.15.22v.34a.76.76,0,0,0-.18.36l-.07.08v.36l-.07.1a2.62,2.62,0,0,1-.08.53l.11.25a.73.73,0,0,0-.29.24l.08.16-.12.15.16.4-.18.25,0,.48,0,.22.09.06,0,.14a.68.68,0,0,1,.29.22l.45-.11a.52.52,0,0,1,.44-.31l0-.14.32-.09s0,0,0-.11a.35.35,0,0,1,.17-.2h0s.06,0,.06-.08l.36-.42h-.08l.22-.2a.87.87,0,0,1,.32-.18l.15-.38a.67.67,0,0,0,.42-.42h.11l.2-.26,0-.16.19,0a.22.22,0,0,1,0-.1.85.85,0,0,1,.13-.22c.09-.13.17-.23.22-.32l.09,0a.48.48,0,0,1,.21-.36.47.47,0,0,1,.16-.25.37.37,0,0,1,.16-.09h.14l0-.25a.09.09,0,0,0,0-.07.17.17,0,0,0-.06-.12,1.11,1.11,0,0,1,.28-.36l0-.22.14-.11,0-.17a1,1,0,0,0,.15-.36l.17-.18Zm-2.84-3.89-.06.06,0,.22-.1.06v.14c-.08,0-.2.14-.38.36a1.51,1.51,0,0,0-.36.06.85.85,0,0,1-.21.05s0,0-.06-.08a.11.11,0,0,0-.11-.09h0c0-.07,0-.1-.08-.1h-.05l-.11-.07,0-.09-.07-.08,0-.12-.18-.28c0-.15.06-.26.07-.32s.1-.14.25-.24a1,1,0,0,0,.31-.28l.17.06a.55.55,0,0,1,.41.18.81.81,0,0,0,.37.22Zm3.3.24-.13.31-.23.13a.53.53,0,0,1-.29.22,3.57,3.57,0,0,0-.41.13,2.3,2.3,0,0,0-.36-.31,2,2,0,0,1-.23-.19s0-.15,0-.4l.18-.21,0-.13.08-.08,0-.09c.07,0,.11-.06.11-.1l.09,0s0,0,0,0v0h.06c.05,0,.08,0,.1-.09s.05-.09.09-.09a1.24,1.24,0,0,0,.53.12c.15.21.28.33.37.35v.15l.11.06,0,.21Z"/><path class="cls-4" d="M176.54,148.92l1.37.06,1.32-.06.32,0,.14,0h.72c.14,0,.21.06.21.17s-.11.23-.32.27a.29.29,0,0,0-.17,0,.36.36,0,0,0-.25.1l-.29-.06-.53,0a1.62,1.62,0,0,1-.75.2l-.38-.07-.19.19h-.19v-.12l-.34.16H177l-.06.17a3.76,3.76,0,0,0-.59-.07c0,.07,0,.11-.1.11s-.06,0-.11-.08l-.29,0-.19.21-.06,1,0,.58-.06.75,0,.84.06.4V154l.23.5v.09a.89.89,0,0,0,.4.66l.06.16.36.08.27.28.74.14,1-.23.29.09.69-.32.26,0a.34.34,0,0,1,.14.25c0,.1-.08.21-.25.33l-.15-.06-.31.26-.67.08-.22.14-.23-.14a1.49,1.49,0,0,1-.71.17l-.4-.07H177l-.73-.42-.34-.48-.23-.27-.36-.95-.17-.9.09-.36-.17-.2.08-.22-.08-.36.21-.16-.09-.19.05-.23-.09-.26,0-.38,0-.2.09-.06v-.72c0-.18-.1-.26-.17-.26a.13.13,0,0,0-.11.07l-.23-.09-.31.07-.32-.23h-.17c-.16,0-.23-.09-.23-.26l0-.31-.14-.09.08-.18.29,0,.22,0,.33.1h.84l0-.46V148l-.14-.34.16-.12a.9.9,0,0,0,0-.15.25.25,0,0,0-.15-.21l0-.78-.17-.25,0-.17c-.13,0-.2-.08-.2-.16l.14-.53a2.06,2.06,0,0,0,.19-.27,2.57,2.57,0,0,1,.59.34v0l-.08.2a1,1,0,0,1,.14.44v.06a.74.74,0,0,0-.06.28.19.19,0,0,0,.06.15l0,.17,0,.22-.17.28.11.5-.08.6.08.12-.11.18.15.49h.36Z"/><path class="cls-4" d="M187.09,154.62a.73.73,0,0,1,.15.33.76.76,0,0,1-.18.33,2.31,2.31,0,0,0-.28.54l-.14,0-.22.42-.24,0-.54.36-.1.22-.16,0-.18.2h-.28l-.06.1-.14,0a.5.5,0,0,0-.38.2l-.13-.1a.86.86,0,0,1-.33.1.64.64,0,0,1-.36-.1l-.26,0-.12-.1a.87.87,0,0,1-.72-.3v-.25l-.33-.17-.07-.21a.87.87,0,0,0-.22-.25v-.16l-.22-.95,0-.67.07-.38v-.42l.11-.36,0-.26a.44.44,0,0,0,.14-.22,1.17,1.17,0,0,1,.12-.3,3.49,3.49,0,0,1-.08-.5l.17-.15-.17-.19a.82.82,0,0,0,.13-.29l-.09-.59a1.52,1.52,0,0,1,.06-.42.29.29,0,0,0,.26.17,2.06,2.06,0,0,0,.38-.07.59.59,0,0,1,0-.14.29.29,0,0,1,.16-.24,3.39,3.39,0,0,1,.44-.92.49.49,0,0,0,.18-.4h.1l.1-.2.11,0A.89.89,0,0,1,184,148a1.36,1.36,0,0,0,.54-.46l.16,0s.07-.07.16-.22l.36-.12a.24.24,0,0,1,.18.12l.18,0,.1.08h.12a.4.4,0,0,0,.4.32h.06a.28.28,0,0,0,.12.2l-.09,0c.23.11.35.37.35.77l-.06.23.06.55-.1.09-.23.6-.4.5,0,.28a5.67,5.67,0,0,1-1.17.8.14.14,0,0,1-.13.12l-.15,0-.44.3h-.26l-.39.18-.16-.1a1.53,1.53,0,0,0-.41-.08,1,1,0,0,0-.3.73l-.14.17a2.35,2.35,0,0,1-.1.52l-.11.06.11.72-.11.1,0,.22,0,.27c0,.05,0,.17,0,.37s.09.32.16.36,0,.2.19.33a1.4,1.4,0,0,0,.51.27v.12l.52.08.74,0,.5-.06a2.34,2.34,0,0,1,.44-.27l.16-.23h.18l0-.1a1.46,1.46,0,0,0,.47-.2.16.16,0,0,0,.05-.1.19.19,0,0,1,.17-.12l.06-.12a.65.65,0,0,0,.55-.58A.38.38,0,0,1,187.09,154.62Zm-1.64-4.56c.06,0,.14-.09.27-.24l.06-.24a5.38,5.38,0,0,0,.28-.52.79.79,0,0,0,0-.28,2.41,2.41,0,0,0-.14-.59l-.4-.13-.2,0-.12,0a.22.22,0,0,0-.21.17,1.6,1.6,0,0,0-.53.15l-.06.14a.12.12,0,0,0-.08,0h-.05a.05.05,0,0,0-.05,0l0,0,0,.06,0,.09,0,.09L184,149l-.15.17-.28.54-.15.13a.48.48,0,0,0-.11.25,4.14,4.14,0,0,1-.52.94l.13.08.07.16.33.1a1.57,1.57,0,0,1,.61-.26L184,151l.15,0a.24.24,0,0,0,.19-.12l.23,0,.15-.24h.14l.1-.22a.68.68,0,0,0,.49-.24Z"/><path class="cls-5" d="M104,183.79h.53a1.19,1.19,0,0,1,.31-.08c.13,0,.19.06.19.18s-.07.14-.21.14h-.07l-.29.16-.35-.12-.51.28-.21-.11a.66.66,0,0,0-.32-.07,1,1,0,0,0-.25,0l-.25,0h0l-.25,0-.42.14-.17,0-.08.06-.93,0-.23,0-.08.14-.32-.1-.22.11a1.15,1.15,0,0,1-.41,0l-.27-.06a1.23,1.23,0,0,0-.39.05,5,5,0,0,1-.64.09l-.17.18-.12,0a.5.5,0,0,0-.07.28,2.77,2.77,0,0,0,.31.92l-.16.46.16.12-.16.24a.2.2,0,0,1,.16.22l-.1.4-.06.8,0,.3.72.1.54-.14.17.1a1.28,1.28,0,0,0,.46,0,.4.4,0,0,0,.31-.14l.38-.09.46.17.55-.1a.93.93,0,0,0,.32-.07l.25.09.32-.09.18.11a2.88,2.88,0,0,0,.53,0l.15,0,.18,0a.54.54,0,0,0,.15,0,.26.26,0,0,0,.21-.12l.5-.06.2.06a.27.27,0,0,1,.14,0l.21.07H105l0,.11a1.29,1.29,0,0,0-.57.24h-.27l-.18.12-.46-.05-.39.14a2.62,2.62,0,0,1-.61.13l-.32-.1-.08.1-.61-.08-.23.12-.36,0-.28.07a2.72,2.72,0,0,1-.46.07H100a.68.68,0,0,0-.32.1l-.23-.14-.1,0a2,2,0,0,0-.57.2l-.38-.06-.16.06-.28-.06c-.09,0-.17.39-.25,1.16a5.47,5.47,0,0,1,0,.6c.07.15.1.26.07.32l-.21.64.12.24-.14.26.06.32-.08.15a.49.49,0,0,1,0,.15,3.64,3.64,0,0,1-.16.85c-.1.4-.2.8-.28,1.21l-.23-.13h-.13l0-.23v-.19l.09-.09,0-.25a1.26,1.26,0,0,1,.15-.43l-.15-.1v-.22l-.09-.1.15-.3-.17-.06a2.3,2.3,0,0,1,.1-.35.89.89,0,0,0,.07-.21v0l-.08-.1,0-.14,0-.3.11-.32-.06-.78.15-.79-.09-.31v-.36a.22.22,0,0,0-.15-.22l-.54.22-.4-.22-.38.05a.22.22,0,0,1-.12,0q-.15,0-.15-.27a.64.64,0,0,1,.1-.38.52.52,0,0,1,.4-.12l.47,0,.6.06h.13c.17,0,.27-.11.33-.34l-.1-.26V187l-.1,0,.08-1.09-.23-.59,0-.4-.55-.27-.46.31-.19-.26a.25.25,0,0,1-.21-.18,1,1,0,0,0,.1-.52.85.85,0,0,0,.51-.15.66.66,0,0,1,.35-.15l.55.06.38,0,1-.06.67.1.69,0,.17-.09.09,0,.11,0,.11,0h0l.77-.12,0,.12a.17.17,0,0,1,.13-.1c.07,0,.14,0,.23.16l.13-.06.53-.06h0l1.17.16a1.87,1.87,0,0,1,.57-.08A.34.34,0,0,1,104,183.79Z"/><path class="cls-5" d="M115.47,193.11l.32,0c.14,0,.21,0,.21.16s-.07.19-.21.3l-.15.08-.09.11a2,2,0,0,1-.35.21l-.32.1c-.08.08-.29.12-.65.12l-.3-.08a1,1,0,0,1-.31-.14l-.65-.58-.15-.62-.19-.18v-.1a1,1,0,0,0-.14-.52l0-.48a3.53,3.53,0,0,0,.08-.42.91.91,0,0,0-.12-.44l.06-.9-.23.12-.13.22-.19.12a.62.62,0,0,0-.19.24l-.18,0a.53.53,0,0,0-.22.4.65.65,0,0,0-.38.34,1.29,1.29,0,0,1-.3.46,1.11,1.11,0,0,1-.34.28.52.52,0,0,0-.19.12l-.57.7h-.06l-.47.56-.37.2-.17.26a5.8,5.8,0,0,0-.82.34l-.3-.2a.28.28,0,0,1-.14,0c-.07,0-.11,0-.11-.1s0-.1,0-.12l-.21-.12a.35.35,0,0,1,.07-.2l-.26-.26.15-.2h-.21l-.15-.38.15-.12-.19-.26c0-.33,0-.5.07-.52v-.34a1.31,1.31,0,0,1,.11-.42l-.17-.12a.53.53,0,0,0,.07-.7c.08,0,.12-.15.12-.32s0-.15,0-.26l-.08-.66.23-1.4a5.23,5.23,0,0,0-.09-.76l-.08-.34c0-.21.11-.32.34-.32l.29.08.15.18-.09.42,0,1,0,.64-.14.32.08.19-.08.31v.26c-.05,0-.06.06,0,.12a.45.45,0,0,1,0,.14.38.38,0,0,1-.07.22l.13.18-.19.24.12.18-.06.26.06.32v.38l.11.14-.1.48a.58.58,0,0,0,.12.3l-.06.22.1.28a1.86,1.86,0,0,1,.42.38.67.67,0,0,0,.38-.2,3.23,3.23,0,0,1,.42-.34s0,0-.08,0c.22-.1.33-.2.33-.32a1.22,1.22,0,0,0,.32-.08l0-.24.19-.08a1.09,1.09,0,0,1,.67-.38l0-.2.36-.3a.41.41,0,0,1,.42-.4l.08-.26.17-.08.27-.38h.11v-.12l.19-.1.11-.28.48-.22.08-.22.15-.06v-.13h.08c0-.32.14-.48.34-.48l-.06-.06.37-1.11h.09v-.27h0a2.14,2.14,0,0,0,.34-.72l.35,0,0,.08.21.38-.17.74-.29.44-.21.74-.25.18v.44l-.15.28,0,.32-.13.14,0,.88-.07,1.08,0,.12v.16h.05v.3a1.71,1.71,0,0,1,.33.59l.28.07.06.18.48.22.26,0,.21.06.32-.12A1.74,1.74,0,0,0,115.47,193.11Z"/><path class="cls-5" d="M119.34,186.57l1.38.06,1.32-.06.32,0,.14,0h.72c.14,0,.21.06.21.17s-.11.23-.33.27a.24.24,0,0,0-.16,0,.39.39,0,0,0-.26.1l-.28-.06-.54,0a1.55,1.55,0,0,1-.74.2l-.38-.07-.19.19h-.19v-.12l-.34.16h-.18l-.06.18a2.54,2.54,0,0,0-.58-.08c0,.08,0,.11-.1.11a.19.19,0,0,1-.12-.07l-.28,0-.2.2,0,1,0,.58-.06.75,0,.84,0,.4v.37l.24.49v.09a.86.86,0,0,0,.4.66l.06.16.36.08.26.28.75.14,1-.22.28.08.7-.32.26,0a.4.4,0,0,1,.14.25c0,.1-.09.21-.26.33l-.14-.06-.31.26-.67.08-.22.14-.24-.14a1.43,1.43,0,0,1-.7.18l-.4-.08h-.22l-.72-.42-.34-.48-.23-.26-.37-1-.16-.9.09-.36-.17-.2.08-.22-.08-.36.21-.16-.09-.18,0-.24-.09-.26,0-.38,0-.2.09-.06v-.72c0-.18-.1-.26-.17-.26a.14.14,0,0,0-.12.07l-.22-.09-.31.08-.33-.24h-.16c-.16,0-.24-.09-.24-.26l0-.31-.13-.09.07-.18.3,0,.22,0,.32.1h.84l0-.46v-.46l-.13-.34.15-.12a.63.63,0,0,0,0-.14.25.25,0,0,0-.15-.22l0-.78-.16-.25,0-.17c-.13,0-.2-.08-.2-.16l.14-.52a1.34,1.34,0,0,0,.18-.28,2.52,2.52,0,0,1,.6.34v0l-.08.2a1.13,1.13,0,0,1,.14.44v.06a.79.79,0,0,0-.06.28.23.23,0,0,0,.06.16l0,.16,0,.22-.18.28.12.5-.08.6.08.12-.12.18.16.49h.36Z"/><path class="cls-5" d="M126.31,186.57l1.37.06,1.32-.06.32,0,.14,0h.72c.14,0,.21.06.21.17s-.11.23-.32.27a.29.29,0,0,0-.17,0,.36.36,0,0,0-.25.1l-.29-.06-.53,0a1.62,1.62,0,0,1-.75.2l-.38-.07-.19.19h-.19v-.12l-.34.16h-.17l-.06.18a2.66,2.66,0,0,0-.59-.08c0,.08,0,.11-.1.11a.2.2,0,0,1-.11-.07l-.29,0-.19.2-.06,1,0,.58-.06.75,0,.84.06.4v.37l.23.49v.09a.89.89,0,0,0,.4.66l.06.16.36.08.27.28.74.14,1-.22.29.08.69-.32.26,0a.36.36,0,0,1,.14.25c0,.1-.08.21-.25.33l-.15-.06-.31.26-.67.08-.22.14-.23-.14a1.5,1.5,0,0,1-.71.18l-.4-.08h-.21l-.73-.42-.34-.48-.23-.26-.36-1-.17-.9.09-.36-.17-.2.08-.22-.08-.36.21-.16-.09-.18,0-.24-.09-.26,0-.38,0-.2.09-.06v-.72c0-.18-.1-.26-.17-.26a.13.13,0,0,0-.11.07l-.23-.09-.31.08-.32-.24h-.17c-.16,0-.23-.09-.23-.26l0-.31-.14-.09.08-.18.29,0,.22,0,.33.1h.84l0-.46v-.46l-.14-.34.16-.12a1.2,1.2,0,0,0,0-.14.25.25,0,0,0-.15-.22l0-.78-.17-.25,0-.17c-.13,0-.2-.08-.2-.16l.14-.52a2.71,2.71,0,0,0,.19-.28,2.57,2.57,0,0,1,.59.34v0l-.08.2a1,1,0,0,1,.14.44v.06a.79.79,0,0,0-.06.28.23.23,0,0,0,.06.16l0,.16,0,.22-.17.28.11.5-.08.6.08.12-.11.18.15.49h.36Z"/><path class="cls-5" d="M136.86,192.27a.73.73,0,0,1,.15.33.84.84,0,0,1-.18.34,2.25,2.25,0,0,0-.28.53l-.14,0-.22.42-.24,0-.54.36-.1.22-.16,0-.18.2h-.28l-.06.1-.14,0a.5.5,0,0,0-.38.2l-.13-.1a.86.86,0,0,1-.33.1.64.64,0,0,1-.36-.1l-.26,0-.12-.1a.87.87,0,0,1-.72-.3v-.25l-.33-.17-.07-.21a.87.87,0,0,0-.22-.25v-.16l-.22-.94,0-.68.07-.38v-.42l.11-.36,0-.26a.44.44,0,0,0,.14-.22,1.17,1.17,0,0,1,.12-.3,3.27,3.27,0,0,1-.08-.5l.17-.15-.17-.19a.9.9,0,0,0,.13-.28l-.09-.6a1.52,1.52,0,0,1,.06-.42.31.31,0,0,0,.26.18,2.54,2.54,0,0,0,.38-.08.59.59,0,0,1,0-.14.29.29,0,0,1,.16-.24,3.54,3.54,0,0,1,.44-.92.49.49,0,0,0,.18-.4h.1l.1-.2.11-.05a.89.89,0,0,1,.21-.29,1.28,1.28,0,0,0,.54-.46s.08,0,.16,0,.07-.07.16-.22l.36-.12a.24.24,0,0,1,.18.12l.18,0,.1.08h.12a.4.4,0,0,0,.4.32H136a.28.28,0,0,0,.12.2l-.09,0c.23.11.35.37.35.77l-.06.23.06.56-.1.08-.23.6-.4.5,0,.28a5.67,5.67,0,0,1-1.17.8.14.14,0,0,1-.13.12l-.15,0-.44.3h-.26l-.39.18-.16-.1a1.53,1.53,0,0,0-.41-.08,1,1,0,0,0-.3.73l-.14.17a2.35,2.35,0,0,1-.1.52l-.11.06.11.72-.11.1,0,.22,0,.28s0,.16,0,.37.09.32.16.35,0,.2.19.33a1.4,1.4,0,0,0,.51.27V194l.52.08.74,0,.5-.06a2.15,2.15,0,0,1,.44-.26l.16-.24h.18l0-.1a1.25,1.25,0,0,0,.47-.2.16.16,0,0,0,0-.1.19.19,0,0,1,.17-.12l.06-.12a.65.65,0,0,0,.55-.58A.38.38,0,0,1,136.86,192.27Zm-1.64-4.56c.06,0,.14-.09.27-.24l.06-.24a4.37,4.37,0,0,0,.28-.52.75.75,0,0,0,0-.28,2.37,2.37,0,0,0-.14-.58l-.4-.14-.2,0-.12,0q-.15,0-.21.18a1.52,1.52,0,0,0-.53.14l-.06.14-.08,0h0s0,0-.05,0l0,0,0,.07,0,.08,0,.09a.91.91,0,0,1-.12.17l-.15.17-.28.54-.15.13a.53.53,0,0,0-.11.25,4.14,4.14,0,0,1-.52.94l.13.08.07.16.33.1a1.57,1.57,0,0,1,.61-.26l.06-.12a.41.41,0,0,0,.15,0,.24.24,0,0,0,.19-.12l.23,0,.15-.24h.14l.1-.22a.68.68,0,0,0,.49-.24Z"/><path class="cls-5" d="M145.49,186.25l-.06.24-.59.08-.38.28-.25,0-.32.2-.33.14a1.28,1.28,0,0,1-.38.26v.09l-.29.15-.21.32h-.21l-.11.32-.22.14a.58.58,0,0,0-.22.22l-.19.36a.64.64,0,0,0-.27.54l-.09,0,0,.12-.15.1-.14.34a1,1,0,0,0-.21.46l-.19.08v.42a.51.51,0,0,0-.09.21l0,.07-.19.08.06.16a3,3,0,0,1-.3.72l.09.25-.19.33a2.51,2.51,0,0,1,0,.3l0,.32.09.35s0,.06.08.12l.15.15a1.59,1.59,0,0,1-.24.34l-.27-.1,0,.18-.44-.08v-.27l-.06-.17.06-.32-.06-.14,0-.68,0-.46c-.09,0-.13-.07-.13-.12a.47.47,0,0,1,.13-.24v-.3a1.53,1.53,0,0,0,0-.34l.08-.1-.08-.38.06-.3-.06-.19.06-.53-.1-.16.06-.18-.11-.4,0-.32a3.18,3.18,0,0,0,0-.36l.05-.1-.11-.68-.15-.1.15-.34a1.08,1.08,0,0,1-.21-.66v-.28a.35.35,0,0,1-.11-.18,1,1,0,0,1,.49-.32l.15,0a1.1,1.1,0,0,0,.21.47l0,.5.19,1.51a.37.37,0,0,1-.12.27l.1.42-.06.3.06.32,0,.26.15.3-.09.06.07.46.16,0,.06-.39a1.43,1.43,0,0,1,.24-.36.64.64,0,0,0,.25-.49v-.12l.13-.06s0,0,0-.07,0-.08.07-.08H141l.12-.39.3-.2,0-.12h.14l-.06-.22.3-.14,0-.24.29,0a1,1,0,0,0,.29-.38l.19,0a1.37,1.37,0,0,1,.36-.36.11.11,0,0,0,.1-.06l.32-.18.08-.15.17-.09a1.64,1.64,0,0,1,.7-.38h.08a.46.46,0,0,0,.29-.1l.17.06a.4.4,0,0,1,.23-.1A1,1,0,0,1,145.49,186.25Z"/><path class="cls-5" d="M157.63,191c0,.11-.06.21-.25.31l0,.07a1,1,0,0,1-.26.42.91.91,0,0,0-.27.48l-.21.06a.45.45,0,0,1-.36.48c0,.08-.05.12-.1.12h0c0,.11-.09.16-.22.16l-.12.24-.28,0-.24.16a.32.32,0,0,1-.13,0l-.44.08-.15,0-.15,0-.06-.08-.17,0-.23-.28h-.09a.29.29,0,0,1-.08-.22.93.93,0,0,1-.32-.54v-.16l-.14-.26V192l.1-.06-.08-.28-.15-.37,0-.53-.2-.32V190a14.86,14.86,0,0,1-.29-1.78v-.08a1.78,1.78,0,0,1,0-.22.37.37,0,0,1,0-.12,1.22,1.22,0,0,1-.23-.56l-.1-.08-.42.44-.2.28-.71.84-.27.5c-.1.21-.18.37-.24.47a1.84,1.84,0,0,1-.39.44l.06.19-.13.38-.16,0v.18h-.11l-.38.45c0,.23-.1.35-.25.39a1.19,1.19,0,0,0-.16.37c0,.16-.12.24-.22.25l-.08.08a2.86,2.86,0,0,1-.35.49,3.94,3.94,0,0,1-.45.39c0,.22-.13.35-.25.4l0,.1a.4.4,0,0,1-.09.25.81.81,0,0,1-.48.22c-.1,0-.17-.12-.23-.33a.53.53,0,0,0-.23-.38l-.06-.13.16-.25,0-.24.09-.1-.09-.18,0-.24-.16-.44.14-.26-.08-.28a1.89,1.89,0,0,0,.14-.82v-.11a.69.69,0,0,0-.12-.23.34.34,0,0,0,.15-.24l0-.32.11-.76-.08-.14,0-.32-.09-.18.07-.64,0-.22.05-.36-.05-.52.13-.26a2,2,0,0,1,.4.14.44.44,0,0,1,.05.18c0,.1,0,.25,0,.46l.17.26-.06.38.08.82-.14.44.06.52v.24l-.19.3.13.42a2,2,0,0,0-.15.54l.1.24a2.48,2.48,0,0,0-.15.78v.72l.06.1.25-.12h.19l.11-.44a.35.35,0,0,0,.27-.22c0-.16.12-.24.31-.24a.42.42,0,0,1,.13-.3c.05,0,.12-.09.19-.28a2,2,0,0,0,.32-.42v-.28h0s.11,0,.18-.14a.33.33,0,0,1,.26-.14.75.75,0,0,1,.18-.36l.28-.34.25-.56c0-.1,0-.17,0-.2a.05.05,0,0,1,.06-.06c.27-.18.4-.35.4-.52V188c.2-.07.31-.14.31-.21a.3.3,0,0,0,0-.11.42.42,0,0,1,0-.09c0-.07,0-.1.08-.1a.29.29,0,0,1,.15.06q.15-.54.45-.54a.54.54,0,0,1,.18,0,.61.61,0,0,1,.17-.46c0-.09.18-.19.47-.3l.1-.16h.08a.9.9,0,0,0,.28.28l0,.14.1,0,0,.38.26.16-.09.34.15.62v.58l.13.68.06.72.21.66,0,.66a1.18,1.18,0,0,0,.1.19,1.33,1.33,0,0,1,.13.45l.09.06v.3l.18.2,0,.14.13.08v.1a.61.61,0,0,0,.33.11.6.6,0,0,0,.3-.07l.1,0c.05,0,.11-.06.17-.16s.28-.07.28-.16v-.05a1,1,0,0,1,.41-.19,1.26,1.26,0,0,1,.2-.2l0-.05a.49.49,0,0,1,.07-.11,1.92,1.92,0,0,1,.19-.17.68.68,0,0,0,.19-.21l.11-.22.38-.56.27-.14h.19Z"/><path class="cls-5" d="M165.71,193.89l-.28.14-.06.18a1.32,1.32,0,0,0-.3.1l-.1-.07-.15.07-.31-.38v-.44l-.15-.12,0-.62-.11-1.28.07-.42-.13-.22.17-.1-.11-.18,0-.18.1-.08,0-.24h.11v-.4l0-.2c-.05,0-.11-.07-.19-.19l-.31.15a.73.73,0,0,1-.26.32l0,.22-.23.1,0,.28-.13.1v.14a1,1,0,0,0-.29.35L163,191l-.3.54-.48.48-.16.26-.42.44-.11.24-.57.4-.65.76-.21.06a.8.8,0,0,0-.31.2h-.05c-.11,0-.2-.11-.27-.32-.5-.2-.76-.48-.79-.84l.16-.1a2.58,2.58,0,0,1-.16-.78l-.11-.08.07-.11a.36.36,0,0,0,.06-.2q0-.14.06-.39l.14-.74a.26.26,0,0,1,0-.14.46.46,0,0,1,.06-.22.79.79,0,0,1,0-.22.58.58,0,0,1,0-.2l.07,0a.72.72,0,0,0,.17-.38.21.21,0,0,0-.06-.16s-.07-.07-.07-.08,0-.08.11-.1q-.15,0-.15-.12c0-.07.07-.1.21-.1v0a.72.72,0,0,1,.12-.4.65.65,0,0,0,.13-.25l-.13,0,.26-.42v-.1a1,1,0,0,1,.27-.72l0-.37.09,0a.37.37,0,0,1-.07-.2s0-.06.13-.06v-.32c.07,0,.1,0,.1-.1a.36.36,0,0,0,0-.11l.27-.32a1.15,1.15,0,0,0,.28-.39h.06c.15,0,.23,0,.23-.11s0,0-.06-.09c.27,0,.41-.06.42-.16l.36-.19,1,.09v.08l.84.18h.07c.13,0,.19.05.19.16l.1,0a.21.21,0,0,0,.22.18l.1,0,.17.18.42.1v.18a3,3,0,0,1,.73-.32v.32h-.1l.2.1,0,0,.15.5-.17.2-.08.33a1.59,1.59,0,0,1-.19.41l.13.25-.11.16a.83.83,0,0,0-.1.45.1.1,0,0,1,.06.1l0,.16,0,.14,0,.22,0,.18-.11.14,0,.44-.06.06.06.08-.06.06a.15.15,0,0,1,0,.08.32.32,0,0,1-.06.18l.06.12-.1.18c-.05,0-.08.13-.08.28l.08.26-.19.24a.66.66,0,0,0,.19.26,2,2,0,0,0-.24.78l.16,0,0,.11a.37.37,0,0,1,0,.14.83.83,0,0,1-.15.4h.13l.06.3.4,0,.14.25s-.06.05-.06.07.06.12.19.2h0s0,0,0,0S165.6,193.8,165.71,193.89Zm-1-7.18-.12-.37-.32-.09-.56-.5a.43.43,0,0,0-.2-.08.41.41,0,0,0-.16,0l-.1-.1h-.32l-.1-.13-.22.09-.1-.09-.17.05-.31-.05a2,2,0,0,0-.7.23l0,.08-.18.06,0,.07-.22,0v.12a1.59,1.59,0,0,0-.46.64,6.61,6.61,0,0,1-.36,1l.15.08L160,188l.08.16a1.08,1.08,0,0,0-.18.62v.1l-.15.22v.34a.66.66,0,0,0-.17.36l-.08.08v.36l-.07.1a2.06,2.06,0,0,1-.08.53l.11.25a.71.71,0,0,0-.28.24l.08.16-.12.16.16.4-.18.24,0,.48-.06.22.1.06,0,.14a.66.66,0,0,1,.28.22l.46-.1a.49.49,0,0,1,.44-.32l0-.14.32-.09s0,0,0-.11a.37.37,0,0,1,.18-.2h0s.06,0,.06-.08l.36-.42h-.08l.21-.2a.84.84,0,0,1,.33-.18l.14-.38q.38-.17.42-.42h.12l.19-.26,0-.16.18,0a.22.22,0,0,1,0-.1,1.13,1.13,0,0,1,.14-.22c.09-.13.16-.23.21-.32l.09,0a.5.5,0,0,1,.22-.36.41.41,0,0,1,.15-.25.39.39,0,0,1,.17-.09h.14v-.25a.09.09,0,0,0,0-.07.21.21,0,0,0-.05-.12,1,1,0,0,1,.28-.36l0-.22.13-.1,0-.18a.92.92,0,0,0,.15-.36l.18-.18Z"/><path class="cls-5" d="M175.33,192l-.18.26.12.08a1.28,1.28,0,0,1-.26.3l0,.26-.24,0-.07.14a1.28,1.28,0,0,1-.33.26l-.14,0a1,1,0,0,1-.56.18l-.12-.08,0,.16-.46-.22a.72.72,0,0,0-.22.14l-.08-.08-.6-.06-.36.06-.18-.16-.42.06-.2-.18a.72.72,0,0,1-.32.1.56.56,0,0,1-.3-.1.3.3,0,0,0-.1.22s0,.08,0,.18a.9.9,0,0,1,0,.24,1.23,1.23,0,0,1-.1.38l.08.26-.16.2a5.54,5.54,0,0,1,.06.78l-.06.55.06.71-.18.26.12.38-.12.46.18.06V198c-.09,0-.14.09-.14.21a.77.77,0,0,0,0,.19l0,0a1,1,0,0,0-.17.39l0,1.58c0,.23-.06.34-.16.34l-.28,0,0-.38-.1-.84.16-.32.06-.6-.12-.68a.31.31,0,0,0,.16-.22,3.07,3.07,0,0,0-.12-.44l.14-.26-.14-.44.14-.34-.06-.36.18-.12c-.19-.05-.28-.15-.28-.32a3.85,3.85,0,0,1,.16-.72l-.12-.24.08-.32-.08-.08.08-.12-.08-.72.12-1-.14-.2.28-.14-.14,0-.12-.2-.12-.06.1-.06,0,.06.06-.1-.08-.08.22,0-.08-.12h.08v-.09c-.09,0-.14-.09-.14-.14a.58.58,0,0,1,.06-.26l-.06-.22c-.08,0-.12-.05-.12-.11s0,0,.1,0h0v-.06h.12l-.14-.18.06-.26v-.24l0-.14-.08-.33.08-.35-.08-.28.08-.36-.08-.14,0-.32,0-.23,0-.31a.77.77,0,0,1-.14-.46h-.18l-.16-.1-.3.24v-.06l-.14.06h-.28l-.06.12-.24,0-.18.18-.24,0-.16.3-.26-.12-.06.16c-.26-.15-.4-.3-.4-.44s0-.08.11-.13.11-.08.11-.13a.74.74,0,0,0-.06-.2,1.58,1.58,0,0,1,.7-.18l.06,0,.18-.19a2.51,2.51,0,0,1,.53-.27l.07.06.18-.21.44,0,.32-.1.06,0,.08-.42h.18a1,1,0,0,0,.48.52l.08-.14.14.1.1-.06a1.2,1.2,0,0,1,.57.16,1.62,1.62,0,0,0,.45.18.54.54,0,0,1,.32.16l.12-.08,0,.14.26.14,0-.06.18.06.14.19a.64.64,0,0,0,.21.19l.33.19,0,.11.24.08v.06a.44.44,0,0,1,.28.36l.22.14.16.36h.1v.18l.11.12a.85.85,0,0,1,.11.34l.16,0a.62.62,0,0,0,.26.52v.26l.16.22,0,.24.09.23a1,1,0,0,1,.11.45l-.1,0,0,.17v.16l.1,0-.14.4Zm-.54-.62,0-.16,0-.12-.1-.36.08-.2-.12-.26,0-.24-.18-.34-.08-.26-.36-.64-.2-.18-.14-.44-.26-.1-.28-.38v-.08l-.22-.06h-.2l-.26-.35-.14,0-.1-.18-.3-.06h-.24l0-.08-.14.08-.1-.12-.14,0-.08-.14-.18,0-.64-.11a.3.3,0,0,0-.19.27.34.34,0,0,0,0,.1,1.1,1.1,0,0,1,0,.34l-.07.42.15.44.16.14-.16.36,0,.34-.12.72.08.16-.1.24.18.23-.1.07,0,.26.16.09-.16.19.12.2-.2.26.08.4,0,.32.1.36.74-.05,0,.13a1,1,0,0,1,.14-.16l.2.22.15,0,.13,0a1.39,1.39,0,0,1,.34.08c0-.08.09-.12.14-.12s.06,0,.08.08h.32l.24,0,.3-.12,0,.08a2,2,0,0,0,.86-.22h.06c.1,0,.16-.06.16-.18l.14.06,0-.23.18,0,0-.2-.06-.21.14-.11,0-.12Z"/><path class="cls-5" d="M185.67,181.85a.4.4,0,0,1-.11.26l-.08-.08-.19.12-.15-.39a2.65,2.65,0,0,0-.32-.69c-.09-.11-.16-.17-.2-.17l-.15.11a1.16,1.16,0,0,0-.55-.18l-.23.16a.61.61,0,0,0-.31-.09l-.49.07a.52.52,0,0,0-.08.26c0,.05-.06.08-.08.08l0,0s0,0,0,0-.37.4-.8,1.2a3.19,3.19,0,0,1-.16.68l-.11,0a3.79,3.79,0,0,1-.27.74l.15.39-.24.11a1.61,1.61,0,0,1-.2.68l0,.32-.28.74,0,.38a1.17,1.17,0,0,1-.14.42.64.64,0,0,0-.09.38c0,.23.1.34.32.34H181a.44.44,0,0,1,.3-.12h.08l.3,0s.09,0,.22,0l.34,0h.15a.86.86,0,0,1,.25-.08,1.53,1.53,0,0,1,.42.14l.44-.1.1,0a.65.65,0,0,0,.2,0,.82.82,0,0,0,.25,0c.07.09.14.14.19.14a.51.51,0,0,1,.25-.1s.06,0,.06.1a1.35,1.35,0,0,1,0,.24l-.56.18-.59-.12a1,1,0,0,1-.49.18c-.1-.11-.18-.16-.25-.16a1.27,1.27,0,0,0-.4.24l-.37-.06,0,.1-.31.14-.21-.12-.15,0H181a.56.56,0,0,0-.2.14.38.38,0,0,1-.28.14l-.23.26.06.26-.08.32.08.32-.21.48.06.84-.12.31.06.29-.19.48.11.44v0s0,.11-.07.26a1.71,1.71,0,0,0-.08.54l0,.52a.54.54,0,0,0,.15.42l-.09.26.13.46-.09.3.22,1.08.06,1.19.33.45-.14.1-.07.3a1.05,1.05,0,0,1,.24.6v.1a1.28,1.28,0,0,1,.06.34.25.25,0,0,1-.23.28l-.11-.22-.15-.1,0-.22-.4-1.16v-.3l-.14-.17.12-.19-.1-.44.08-.34-.05-.15a1.44,1.44,0,0,1,0-.34v-.22l-.15-1,.08,0-.1-.5,0-.36-.1-.18.08-.14,0-1.07.08-.09v-.82l.09-.18-.05-.68.05-.2.17-1.34c0-.06,0-.14.06-.25a.84.84,0,0,0,0-.23l-.17-.41-.33.15-.3-.1-.19.12-.23-.15-.06.09-.32.06-.33-.08-.57.1-.29-.06-.09.06a2,2,0,0,1-.45-.2.63.63,0,0,1-.2-.39l.09-.29a.17.17,0,0,1,.18-.13,1.47,1.47,0,0,1,.36.09l.06.14.64-.08.81.06.55-.14.4,0a.45.45,0,0,1,.38.14c0-.05.08-.1.25-.16l-.06-.18.1-.4,0-.37a1.38,1.38,0,0,1,.12-.49l-.08-.5.08-.13a.41.41,0,0,0,.06-.23v-.1l.19-.18.09-.66.12-.17-.06-.29a2.05,2.05,0,0,0,.23-.48.25.25,0,0,1,0-.1.91.91,0,0,1,.08-.31c0-.14.09-.24.11-.31a1.34,1.34,0,0,1,.12-.25.51.51,0,0,0,.09-.25l0-.1v-.06a.29.29,0,0,1,.16-.24l-.06-.11c0-.05.06-.11.17-.19a3,3,0,0,0,.34-.66c.11,0,.22-.17.33-.46l.29-.1h.26l.14-.18.36.12a1.27,1.27,0,0,1,.53-.17l.4.09.25.08a1,1,0,0,0,.29-.08.63.63,0,0,1,.17.29l.3.21a2.09,2.09,0,0,0,.42.65l.06.45Z"/><path class="cls-4" d="M118.39,230.17a.89.89,0,0,1-.29.13l-.42-.28-.55-.67-.15-.41a3.14,3.14,0,0,0-.16-.64,1.77,1.77,0,0,1-.23-1.09.41.41,0,0,1,0-.21,2.82,2.82,0,0,0,.1-.65l-.2-.42,0-.21,0-.38,0-.44-.14-.13.12-.31-.12-.17.12-.19-.14-.42v-.63l-.17-.38c0-.17,0-.32,0-.44s-.14-.27-.38-.42l-.25.31-.23.11-.67.93-.59.71-.19.42-.57.63-.75.57-.07.33-.4.15-.06.27-.46.22-.15.39-.32.11-.46.82c-.19,0-.29.17-.32.5l-.14,0a3.34,3.34,0,0,0-.32-.52l0-.26-.14-.18.14-.17-.13-.15a1.77,1.77,0,0,1-.16-.42l-.27-.25a.68.68,0,0,1-.21-.23l-.2-.3a1.57,1.57,0,0,1-.18-.48l-.21-.25-.38-.76-.4-.46-.14-.29-.38-.42-.4-.62c-.23-.35-.41-.52-.54-.52a.75.75,0,0,0-.26,0l-.14.05h0v.24a2.31,2.31,0,0,1-.17,1l-.42.78.09.51-.13.35-.4,1.35-.16.44-.07.29-.25.64-.32.56,0,.44-.34.82a.26.26,0,0,0,.19.26c-.26.32-.43.48-.52.48s-.08-.05-.16-.15a.61.61,0,0,1-.1-.36.86.86,0,0,1,.08-.25,3.75,3.75,0,0,0,.13-.51,1,1,0,0,1,.17-.42l.12-.14V228a.65.65,0,0,1,.4-.62V227l.11-.46a.29.29,0,0,1,0-.12,1.9,1.9,0,0,1,.11-.4.56.56,0,0,0,.14-.36v-.44l.17-.32.36-1.2-.09-.54.17-.13.07-.25,0-.86a4.34,4.34,0,0,0,.1-.76,2,2,0,0,0-.27-.74l.17-.33L105,220c.06,0,.09-.08.09-.18.2,0,.32,0,.37-.13l.19,0,.23.17V220l.23.15.06.45.18.16.08.28h.1a.3.3,0,0,0,0,.14c0,.12.1.19.32.21a.79.79,0,0,1,.27.21l0,.26.23.24.13.47.9.95.17.54.3.25.27.78.69,1.22a2.43,2.43,0,0,0,.52.63l0-.26h.37l.22-.5.42-.29a2.32,2.32,0,0,1,.36-.4v-.17a4.12,4.12,0,0,1,.45-.27c.15-.08.23-.13.23-.15l0,0a.58.58,0,0,1,.11-.32h.21l.17-.25c0,.06.08.09.11.09s0,0,0-.06,0-.13,0-.36c.29-.39.56-.59.78-.59v-.25c0-.13.12-.23.34-.3l.12,0,.05-.12.42-.66,0-.14h.14a2.11,2.11,0,0,0,.44-.74.44.44,0,0,1,.3-.1.11.11,0,0,1,.1.06l.13-.29-.07-.61-.12-.28a1.72,1.72,0,0,0,.28-.64,1.12,1.12,0,0,1,.31.08s.12.08.27.1l0,.32c.22.19.33.3.34.31a.35.35,0,0,1,0,.13l0,.17V221l.12.17-.12.11.12,0,0,.21.07.1.06.42.11.09-.2.27.09,0-.06.42.15.36-.05.46.19.72c0,.15.06.34.1.6a1.4,1.4,0,0,1-.24.36l.12.24s.08.07.08.1a.58.58,0,0,1-.08.19,1.43,1.43,0,0,0-.1.25l.16.15-.06,1.09.19.69v.8l.15.15a1.59,1.59,0,0,0,.2.4,3.89,3.89,0,0,0,.3.35A.79.79,0,0,1,118.39,230.17Z"/><path class="cls-4" d="M127.56,229.67l-.28.13-.06.18a1.33,1.33,0,0,0-.3.11l-.1-.07-.15.07-.31-.38v-.44l-.15-.13,0-.61-.11-1.28.07-.42-.13-.23.17-.1-.11-.17,0-.19.09-.08,0-.24h.11v-.4l0-.2c-.05,0-.11-.07-.19-.18l-.31.15a.73.73,0,0,1-.26.32l0,.21-.23.1,0,.28-.13.1v.15a.82.82,0,0,0-.29.35l-.13.09-.3.53-.48.48-.16.27-.42.44-.11.23-.57.4-.65.76-.21.06a.74.74,0,0,0-.31.21h0q-.17,0-.27-.33c-.5-.19-.76-.47-.79-.84l.16-.09a2.71,2.71,0,0,1-.16-.79l-.11-.07.07-.11a.43.43,0,0,0,.06-.2c0-.1,0-.23.06-.4l.14-.74s0-.07,0-.14a.49.49,0,0,1,.06-.22.8.8,0,0,1,0-.21.59.59,0,0,1,0-.21l.07,0a.72.72,0,0,0,.17-.38.21.21,0,0,0-.06-.16l-.07-.07c0-.05,0-.08.11-.1-.1,0-.15-.06-.15-.13s.07-.1.21-.1v0a.69.69,0,0,1,.12-.39.72.72,0,0,0,.13-.25l-.13,0,.26-.42v-.1a1,1,0,0,1,.27-.72l0-.36.09-.06a.35.35,0,0,1-.07-.2s0-.05.13-.05v-.33c.07,0,.1-.05.1-.09a.27.27,0,0,0,0-.11,3,3,0,0,1,.27-.32,1.38,1.38,0,0,0,.28-.39h.06c.15,0,.23,0,.23-.11s0-.06-.06-.1c.27,0,.41-.05.42-.16l.36-.18,1,.09v.08l.84.17h.07c.13,0,.19.06.19.17l.1,0a.2.2,0,0,0,.22.17l.1,0,.18.18.41.11v.17a3,3,0,0,1,.73-.32v.32h-.1l.2.1,0,0,.15.51-.17.19-.08.33a1.63,1.63,0,0,1-.19.42l.13.25-.11.16a.77.77,0,0,0-.1.44.11.11,0,0,1,.06.1l0,.17,0,.13,0,.22,0,.19-.11.13,0,.44-.06.06.06.09-.06.06a.12.12,0,0,1,0,.07.32.32,0,0,1-.06.18l.06.13-.1.17s-.08.13-.08.29l.08.25-.19.24a.72.72,0,0,0,.19.27,1.86,1.86,0,0,0-.24.77l.16,0,0,.11a.31.31,0,0,1,0,.13.8.8,0,0,1-.15.4h.13l.06.31.4,0,.14.26a.1.1,0,0,0-.06.07s.06.11.19.19h0s0,0,0,0S127.45,229.58,127.56,229.67Zm-1-7.19-.12-.36-.32-.1-.56-.5a.43.43,0,0,0-.2-.08l-.16,0-.1-.09h-.32l-.1-.13-.22.09-.1-.09-.17.05-.31-.05a1.88,1.88,0,0,0-.7.22l0,.08-.18.06,0,.08-.22,0v.12a1.47,1.47,0,0,0-.46.63,6.76,6.76,0,0,1-.36,1l.15.07-.25.23.08.15a1.1,1.1,0,0,0-.18.62v.11l-.15.21v.34a.66.66,0,0,0-.17.37l-.08.07V226l-.07.1a2.18,2.18,0,0,1-.08.54l.11.24a.86.86,0,0,0-.28.25l.08.15-.12.16.16.4-.18.24,0,.48-.06.23.1.06,0,.13a.68.68,0,0,1,.28.23l.46-.11a.47.47,0,0,1,.44-.31l0-.15.32-.08a.35.35,0,0,0,0-.11.39.39,0,0,1,.18-.21h0s.06,0,.06-.08l.36-.42h-.08l.21-.19a.84.84,0,0,1,.33-.19l.14-.38q.38-.15.42-.42h.12l.19-.25,0-.17.18,0a.19.19,0,0,1,0-.1,1.61,1.61,0,0,1,.14-.22c.09-.12.16-.23.21-.31l.09,0a.46.46,0,0,1,.22-.36.38.38,0,0,1,.15-.25.35.35,0,0,1,.17-.1h.14v-.24a.1.1,0,0,0,0-.08.21.21,0,0,0,0-.12A1.22,1.22,0,0,1,126,224l0-.21.13-.11,0-.18a1.07,1.07,0,0,0,.14-.36l.18-.17Z"/><path class="cls-4" d="M139.64,228.89a1.57,1.57,0,0,1,.32,0c.15,0,.22,0,.22.15s-.07.19-.22.31l-.14.07-.1.11a1.92,1.92,0,0,1-.34.22l-.32.09a1.09,1.09,0,0,1-.66.12,1.14,1.14,0,0,1-.29-.08,1,1,0,0,1-.31-.13l-.66-.59-.14-.61-.2-.19v-.1a1,1,0,0,0-.14-.52l0-.47c0-.24.08-.38.08-.42a.88.88,0,0,0-.12-.44l.06-.9-.22.12-.14.21-.18.13a.59.59,0,0,0-.2.23l-.18,0a.56.56,0,0,0-.22.4.61.61,0,0,0-.37.35,1.38,1.38,0,0,1-.3.46,1.11,1.11,0,0,1-.35.28.37.37,0,0,0-.18.11l-.58.71h-.06l-.46.55-.38.21-.16.25a6.61,6.61,0,0,0-.82.34l-.31-.19-.13,0c-.08,0-.12,0-.12-.11a.37.37,0,0,1,0-.12l-.2-.11a.48.48,0,0,1,.06-.21l-.26-.25.16-.21h-.22l-.14-.38.14-.12-.18-.26c0-.33,0-.5.06-.52v-.34a1.64,1.64,0,0,1,.11-.42l-.16-.12a.66.66,0,0,0,.16-.38.75.75,0,0,0-.1-.32c.08,0,.12-.14.12-.31s0-.16,0-.27l-.08-.66.24-1.4a5.48,5.48,0,0,0-.1-.76l-.08-.34c0-.21.12-.31.34-.31l.3.08.14.17-.08.42,0,1,0,.63-.14.32.08.2-.08.3v.27a.09.09,0,0,0-.05.12.45.45,0,0,1,0,.13.37.37,0,0,1-.08.22l.14.18-.2.24.12.18-.06.26.06.33v.38l.12.13-.1.48a.58.58,0,0,0,.12.3l-.06.22.1.28a2.14,2.14,0,0,1,.42.38.66.66,0,0,0,.38-.19,2.57,2.57,0,0,1,.42-.34s0,0-.08,0c.21-.1.32-.21.32-.33a.9.9,0,0,0,.32-.07l0-.25.2-.08a1.2,1.2,0,0,1,.66-.38l0-.19.36-.3a.41.41,0,0,1,.42-.41l.08-.26.18-.08.26-.38h.12v-.11l.18-.1.12-.29a5.11,5.11,0,0,1,.48-.22l.08-.22.14-.05v-.13l.08,0c0-.32.15-.48.34-.48l-.06-.06.37-1.1h.09v-.27h0c.05,0,.16-.25.34-.73l.36,0,0,.08.2.38-.16.75-.3.43-.2.75-.26.17v.44l-.14.29,0,.32-.14.13,0,.88-.08,1.09.06.11,0,.16h.06v.3a1.8,1.8,0,0,1,.32.6l.28.07.06.17.48.23.26,0,.22.06.31-.13A1.74,1.74,0,0,0,139.64,228.89Z"/><path class="cls-4" d="M148.44,228.3l-.14.16a4.61,4.61,0,0,0-.26.6l-.28.21,0,.11h-.27l-.25.29h-.34l-.23.11a.33.33,0,0,0-.21.12.66.66,0,0,0-.27-.06.69.69,0,0,0-.25.06V230l-.36,0-.28,0-.27,0,0,.06-.09-.06-.18.06h-.13a.77.77,0,0,0-.29.05l-.21-.07-.15.11-.08-.09-.15.09a.89.89,0,0,0-.42-.15.43.43,0,0,0-.17.06.81.81,0,0,0-.34-.09l-.44,0a1.34,1.34,0,0,0-.33,0l0-.08-.18.12a.19.19,0,0,0-.15-.08l-.06-.12c-.41,0-.61-.31-.61-.87l.42-.06,0-.15.1-.14.06.12h.11v.1l.19-.1q.15,0,.15.15a.35.35,0,0,1,0,.17l.17,0v.31l.51.07.2.18,0-.1,2.56-.15.88-.17,0-.1.21,0,.06-.08a1.85,1.85,0,0,0,.8-.32l.06.06,0-.12.15-.11,0-.07-.1-.14,0-.17-.23-.19,0-.16a.36.36,0,0,1-.2-.11l-.09,0-.19-.19h-.08l-.09-.12h-.19a.23.23,0,0,0-.23-.15l-.14,0a.91.91,0,0,1-.59-.21h-.21l-.25-.15-.13.07-.06-.09h-.13l-.23-.19-.59-.25-.23-.21-.67-.12,0-.05-.57-.4-.25-.65-.21-.31-.05-.93.05-.1a1.12,1.12,0,0,1,.21-.68c.25-.14.37-.28.38-.42l.14,0a1,1,0,0,1,.37-.48l.24-.21,1.16-.5.59-.11.58-.18.89.06,0,.12h.06a.37.37,0,0,1,.27.11v.17l.24.18c-.07.31-.11.49-.11.53a.15.15,0,0,1-.17.17c-.05,0-.15-.14-.29-.42l-.53,0-.14,0a1.73,1.73,0,0,0-.36-.23.05.05,0,0,0-.06.06l-.19.13a.76.76,0,0,0-.53.18.87.87,0,0,0-.52.24h-.23l-.16.13a2,2,0,0,1-.39.14l-.08.09-.11.06-.27.27-.19.29c-.18.12-.28.2-.29.24l-.2.82.09.06v.06a.69.69,0,0,0,.33.57v.1l.53.32h.13l.29.29h.4l.25.21.46.05.13.12.86.26q0,.12.15.12a.89.89,0,0,1,.45.12,1,1,0,0,0,.39.15l0,.09.17.1h.38l.35.23a.65.65,0,0,0,.26.36l0,.06.1.13.17,0-.07.15A.66.66,0,0,1,148.44,228.3Z"/><path class="cls-4" d="M25.79,307.75h.53a1.5,1.5,0,0,1,.31-.07c.13,0,.19.06.19.18s-.07.14-.21.14h-.08l-.28.15L25.9,308l-.51.28-.21-.11a.67.67,0,0,0-.33-.08l-.24,0a1,1,0,0,1-.25,0h0l-.25,0-.42.15-.17,0-.08.06-.93,0-.23,0-.08.14-.32-.1-.22.11a1.19,1.19,0,0,1-.41.05l-.27-.06a1.23,1.23,0,0,0-.39,0,4,4,0,0,1-.64.08l-.17.19-.12,0a.41.41,0,0,0-.07.27,2.88,2.88,0,0,0,.3.93l-.15.46.15.12-.15.24c.1,0,.15.09.15.22l-.09.4-.06.8,0,.3.72.1.54-.14.17.1a1.55,1.55,0,0,0,.46,0,.36.36,0,0,0,.3-.14l.39-.09.45.17a4.36,4.36,0,0,1,.56-.1.93.93,0,0,0,.32-.07l.25.09.32-.09.18.11a4.39,4.39,0,0,0,.53,0l.15,0,.17,0,.16,0a.25.25,0,0,0,.21-.13l.49-.05.21.05.14,0,.21.07h.11l0,.11a1.38,1.38,0,0,0-.57.23H25.9l-.19.13-.46,0-.39.14a3.28,3.28,0,0,1-.6.13l-.32-.1-.08.1-.61-.08-.23.12-.36,0-.29.07a2.32,2.32,0,0,1-.46.06h-.13a.71.71,0,0,0-.32.11l-.23-.15-.1,0a2.13,2.13,0,0,0-.57.21l-.38-.06-.16.06-.28-.06c-.09,0-.17.39-.25,1.15a3.82,3.82,0,0,1,0,.61c.08.15.11.26.08.32l-.21.64.11.24-.13.25.06.33-.08.15a.49.49,0,0,1,0,.15,3.64,3.64,0,0,1-.16.85c-.1.4-.2.8-.28,1.21l-.23-.13H18.5l0-.23v-.19l.09-.09,0-.25a1.26,1.26,0,0,1,.15-.43l-.15-.11v-.21l-.09-.1.15-.3-.17-.06a2.3,2.3,0,0,1,.1-.35.78.78,0,0,0,.07-.22v0l-.08-.09,0-.14-.06-.3.12-.32-.06-.79.15-.78-.09-.31v-.36a.25.25,0,0,0-.15-.23l-.54.23-.4-.23-.38.06a.22.22,0,0,1-.12,0q-.15,0-.15-.27a.62.62,0,0,1,.1-.38.52.52,0,0,1,.4-.12l.47,0,.6.06h.13c.17,0,.27-.11.32-.34l-.09-.27V311l-.1,0,.08-1.09-.23-.59,0-.4-.55-.27-.46.31-.19-.26a.25.25,0,0,1-.21-.18,1,1,0,0,0,.1-.52.85.85,0,0,0,.51-.15.64.64,0,0,1,.34-.15l.56.05.38,0,1,0,.67.09.69,0,.17-.08a.2.2,0,0,1,.09-.05l.11,0,.1,0h0l.77-.12v.12c.05-.07.1-.1.14-.1s.14.05.23.15l.13,0,.53-.06h0l1.17.15a2.22,2.22,0,0,1,.57-.07A.41.41,0,0,1,25.79,307.75Z"/><path class="cls-4" d="M33.35,316.24a.73.73,0,0,1,.15.33.76.76,0,0,1-.18.33,2,2,0,0,0-.28.54l-.15,0-.21.42-.25,0-.53.36-.1.22-.17,0-.17.2h-.29l-.06.1-.13,0a.48.48,0,0,0-.38.2l-.13-.1a1,1,0,0,1-.33.1.64.64,0,0,1-.36-.1l-.27,0-.11-.1a.91.91,0,0,1-.73-.3v-.25l-.32-.17-.08-.21a.8.8,0,0,0-.21-.25v-.16l-.23-.95,0-.67.08-.38V315l.11-.36,0-.27a.37.37,0,0,0,.14-.22.88.88,0,0,1,.11-.29c0-.12-.05-.29-.08-.5l.18-.15-.18-.19a.94.94,0,0,0,.14-.29l-.1-.59a1.52,1.52,0,0,1,.06-.42.32.32,0,0,0,.27.17,2.21,2.21,0,0,0,.38-.07.32.32,0,0,1,0-.14.3.3,0,0,1,.15-.24,3.72,3.72,0,0,1,.44-.92.47.47,0,0,0,.19-.4h.1l.09-.2.12-.05a.89.89,0,0,1,.21-.29,1.42,1.42,0,0,0,.53-.46.54.54,0,0,0,.17,0s.07-.07.15-.22l.37-.12s.11,0,.17.12l.19,0,.1.07H32a.41.41,0,0,0,.4.33h.06a.29.29,0,0,0,.13.2l-.09,0c.23.11.34.37.34.77l-.06.23.06.55-.1.09-.22.6-.4.5,0,.28a6.26,6.26,0,0,1-1.17.8c0,.08-.07.12-.13.12l-.15,0-.44.3H30l-.38.18-.16-.1a1.64,1.64,0,0,0-.42-.08,1,1,0,0,0-.3.73l-.13.17a2.35,2.35,0,0,1-.1.52l-.11,0,.11.73-.11.1,0,.22,0,.27c0,.05,0,.17,0,.37s.08.32.16.36,0,.2.19.33a1.4,1.4,0,0,0,.51.27V318l.52.08.74,0L31,318a2.06,2.06,0,0,1,.44-.27l.15-.23h.19l0-.1a1.77,1.77,0,0,0,.47-.2.14.14,0,0,0,0-.1.19.19,0,0,1,.18-.12l.06-.13a.65.65,0,0,0,.55-.57A.36.36,0,0,1,33.35,316.24Zm-1.64-4.56c.05,0,.14-.09.26-.24l.06-.24a4.31,4.31,0,0,0,.29-.52,1.14,1.14,0,0,0,0-.28,2.26,2.26,0,0,0-.13-.59l-.4-.13-.21,0-.12,0a.22.22,0,0,0-.2.17,1.58,1.58,0,0,0-.54.15l-.06.14a.1.1,0,0,0-.07,0h-.06a.05.05,0,0,0,0,0l0,0s0,0,0,.06l0,.09,0,.08a.7.7,0,0,1-.13.18l-.14.17-.29.54-.14.13c-.05,0-.08.12-.11.25a4.38,4.38,0,0,1-.53.94l.14.07.07.17.33.1a1.75,1.75,0,0,1,.61-.27l.05-.11.16,0a.24.24,0,0,0,.19-.12l.23,0,.15-.24h.13l.1-.22a.7.7,0,0,0,.5-.24Z"/><path class="cls-4" d="M43.63,317.1a2,2,0,0,1-.53,1,.59.59,0,0,1-.33-.21l-.36-.57-.13-.31-.27-.93v-.9l-.06-.78L42,314l-.06-.38v-.55l-.18-.27-.08.17-.16,0-.3.7-.36.52h-.16l-.05.2a.73.73,0,0,1-.11.27c0,.1-.12.21-.2.35l-.53.6-.42.62-.46.48a4.29,4.29,0,0,1-.37.5l-.27.21a2.56,2.56,0,0,0-.33.41l-.34.12a.81.81,0,0,0-.24.21l-.23.05a1.54,1.54,0,0,0-.41.2l-.18,0-.06.12-.22,0-.63-.48a1.41,1.41,0,0,1-.24-.58c-.05-.25-.13-.37-.22-.38l-.11,0,.2-.32-.09-.32.07-.26,0-.38.13-.6v-.56l.14-.21v-.49a1.09,1.09,0,0,0,.15-.46l.07-.06v-.36l.18-.33,0-.27a1.44,1.44,0,0,0,.18-.4l.1-.6a.6.6,0,0,1,.23-.37l0-.21a.71.71,0,0,1,.12-.26.65.65,0,0,0,.11-.31,2.62,2.62,0,0,1,.5-.42l0-.08a.19.19,0,0,0,.15-.09.23.23,0,0,0,.11,0l.12,0-.1,0,.86-.25.34,0c.11,0,.16,0,.16-.06v0l.32,0,.18.09.11,0c0,.06.07.09.15.09a.12.12,0,0,0,.08,0l.32,0v.09l.08,0,.3.26.31-.08.17.32.32.26a1.16,1.16,0,0,1,.18.3l.32.17c.11.11.19.17.25.17s.06,0,.07-.08l.14-.68.16-.36-.06-.52.09-.94-.09-.24a.63.63,0,0,0,.14-.42l-.08-.18.07-.55-.07-.55.08-.12-.08-.06a.24.24,0,0,0,.1-.16.35.35,0,0,0,0-.12,1,1,0,0,0,0-.29,1,1,0,0,0,0-.29h.09a.48.48,0,0,1,0-.18c0-.09.07-.17.2-.24l-.08-.05.1,0c.07,0,.12.06.15.17s.15.1.17.25h-.1l0,.33,0,.18H42.7l.21.24-.08.28.14.32-.1.14a.89.89,0,0,1,.1.36.46.46,0,0,1-.06.23l.16.13c-.07,0-.1.08-.1.12s.06.11.17.15v.06c0,.09-.06.16-.17.23v.17a13.8,13.8,0,0,1-.16,1.68.3.3,0,0,1,0,.15,1.13,1.13,0,0,1-.09.38l.07.18-.11.45-.06.49a1.27,1.27,0,0,1-.13.34l.06.22-.12.36.12.27-.16.63.1.48-.06.28,0,.26-.12.05a3.19,3.19,0,0,1,.2.35c0,.05,0,.09-.12.11l0,.13,0,.06.14.13-.1.33.14.44-.06.13.06.15-.12.36.1.1h.16l.14.17.28-.07.1.15Zm-1.9-5.46-.12,0-.2-.18-.17-.1s-.08-.1-.15-.26a1.3,1.3,0,0,0-.28-.39.34.34,0,0,1-.17-.11v-.14l-.31-.06L40,310.2a.67.67,0,0,0-.24-.1l-.4-.1-.61.08-.18.1-.18-.14-.31.1h-.4l-.07.17-.12.05c0,.11,0,.18.08.2a2,2,0,0,1-.5.44l-.14.36-.18.1-.18.54-.06.6-.18.17v.35c-.15.13-.22.23-.22.32l0,.48-.32.62-.08.44,0,.67.06.15-.14.27.1.17-.15.33a3.27,3.27,0,0,1,.27.73l.18.09,0,.13h.19a1.25,1.25,0,0,0,.24.14s0,0,.1-.1.15-.1.31-.1v.08a.48.48,0,0,0,.15-.19c.11,0,.16,0,.16-.13l.18-.08.08.06.06-.23.4-.15,0-.18.28-.17v-.09l.22-.23.07,0c.05,0,.07-.05.07-.14h.14v-.12l.32-.14-.08-.3.22-.14-.14-.14h.12a.45.45,0,0,0,.24-.09l0-.08.22,0,.22-.59.2-.19.08-.36.24-.08a2.51,2.51,0,0,1,.44-.61v-.27l.19-.08.49-1Z"/><path class="cls-4" d="M51.47,316.24a.8.8,0,0,1,.14.33.76.76,0,0,1-.18.33,2.31,2.31,0,0,0-.28.54l-.14,0-.22.42-.24,0-.54.36-.1.22-.16,0-.18.2h-.28l-.06.1-.14,0a.5.5,0,0,0-.38.2l-.13-.1a.86.86,0,0,1-.33.1.64.64,0,0,1-.36-.1l-.26,0-.12-.1a.87.87,0,0,1-.72-.3v-.25l-.32-.17-.08-.21a.87.87,0,0,0-.22-.25v-.16l-.22-.95,0-.67.08-.38V315l.1-.36,0-.27a.37.37,0,0,0,.14-.22,1.28,1.28,0,0,1,.12-.29c0-.12,0-.29-.08-.5l.18-.15-.18-.19a.94.94,0,0,0,.14-.29l-.1-.59a1.52,1.52,0,0,1,.06-.42.31.31,0,0,0,.26.17,2.06,2.06,0,0,0,.38-.07.59.59,0,0,1,0-.14.29.29,0,0,1,.16-.24,3.39,3.39,0,0,1,.44-.92.49.49,0,0,0,.18-.4h.1l.1-.2.12-.05a.72.72,0,0,1,.2-.29,1.36,1.36,0,0,0,.54-.46l.16,0s.08-.07.16-.22l.36-.12a.24.24,0,0,1,.18.12l.18,0,.1.07h.12a.4.4,0,0,0,.4.33h.06a.31.31,0,0,0,.12.2l-.08,0c.22.11.34.37.34.77l-.06.23.06.55-.1.09-.22.6-.41.5v.28a6,6,0,0,1-1.18.8q0,.12-.12.12l-.16,0-.44.3h-.26l-.38.18-.17-.1a1.53,1.53,0,0,0-.41-.08,1,1,0,0,0-.3.73l-.14.17a2.35,2.35,0,0,1-.1.52l-.1,0,.1.73-.1.1,0,.22,0,.27a3.05,3.05,0,0,0,0,.37c0,.21.09.32.16.36s0,.2.19.33a1.4,1.4,0,0,0,.51.27V318l.52.08.74,0,.5-.06a2.34,2.34,0,0,1,.44-.27l.16-.23h.18l0-.1a1.74,1.74,0,0,0,.48-.2.14.14,0,0,0,0-.1.19.19,0,0,1,.18-.12l0-.13a.63.63,0,0,0,.55-.57A.38.38,0,0,1,51.47,316.24Zm-1.65-4.56c.06,0,.14-.09.27-.24l.06-.24a5.38,5.38,0,0,0,.28-.52.79.79,0,0,0,0-.28,2.41,2.41,0,0,0-.14-.59l-.4-.13-.2,0-.12,0a.2.2,0,0,0-.2.17,1.58,1.58,0,0,0-.54.15l-.06.14a.12.12,0,0,0-.08,0h0s0,0,0,0l0,0,0,.06,0,.09,0,.08a.86.86,0,0,1-.12.18l-.15.17-.28.54-.15.13a.42.42,0,0,0-.1.25,4.92,4.92,0,0,1-.53.94l.14.07.06.17.34.1a1.71,1.71,0,0,1,.6-.27l.06-.11.16,0a.24.24,0,0,0,.18-.12l.24,0,.14-.24h.14l.1-.22a.68.68,0,0,0,.49-.24Z"/><path class="cls-4" d="M60.09,310.21l-.06.25-.59.08-.38.28-.25,0-.32.19-.33.15a1.28,1.28,0,0,1-.38.26v.09l-.29.15-.2.32h-.22l-.11.31-.22.15a.58.58,0,0,0-.22.22l-.19.36c-.15.07-.24.25-.26.53l-.1,0,0,.13-.15.1-.13.34a.91.91,0,0,0-.22.46l-.19.08v.42a.6.6,0,0,0-.09.21l0,.07-.2.08.06.16a3,3,0,0,1-.3.72l.09.25-.19.32a1.52,1.52,0,0,1,0,.31l0,.32.09.35s0,.06.08.12l.15.14a1.05,1.05,0,0,1-.24.35l-.27-.1,0,.17-.44-.07v-.27L54,318l.06-.33-.06-.13,0-.69,0-.45c-.09,0-.13-.08-.13-.12a.52.52,0,0,1,.13-.25v-.29a3,3,0,0,0,0-.34l.07-.1L54,315l0-.3,0-.19,0-.53-.09-.16,0-.19-.11-.4,0-.31c0-.08,0-.2,0-.36l.06-.1-.12-.68-.15-.1.15-.34a1.09,1.09,0,0,1-.21-.67v-.27a.73.73,0,0,1-.11-.18,1,1,0,0,1,.49-.33l.15,0a1,1,0,0,0,.22.47l0,.5.19,1.51a.4.4,0,0,1-.11.27l.09.42-.06.3.06.32,0,.26.15.3-.09.06.07.46.16,0,.07-.4a1.18,1.18,0,0,1,.23-.35.64.64,0,0,0,.25-.5v-.11l.13-.06s0,0,0-.07,0-.08.07-.08h.06l.11-.39.31-.2,0-.12h.13l-.06-.22.31-.14,0-.25.28,0a1,1,0,0,0,.29-.39l.19,0a1.51,1.51,0,0,1,.36-.37.12.12,0,0,0,.1,0l.32-.18.08-.15.17-.09a1.67,1.67,0,0,1,.71-.39H59a.44.44,0,0,0,.29-.09l.17.06a.4.4,0,0,1,.23-.1A1.21,1.21,0,0,1,60.09,310.21Z"/><path class="cls-4" d="M67.85,317.86l-.28.14-.06.17a2.09,2.09,0,0,0-.3.11l-.1-.07-.15.07-.31-.38v-.44l-.15-.13,0-.61-.11-1.28.07-.42-.13-.22.17-.1-.11-.18,0-.18.09-.08,0-.25h.11v-.4l0-.19a.54.54,0,0,1-.19-.19l-.31.15a.73.73,0,0,1-.26.32l0,.22-.23.09,0,.29-.14.09v.15a.84.84,0,0,0-.28.35l-.14.09-.3.54-.48.48-.16.26-.42.44-.11.23-.57.4-.65.77-.21,0a.91.91,0,0,0-.3.21h-.06c-.11,0-.2-.11-.27-.32-.5-.2-.76-.48-.79-.84l.16-.1a2.58,2.58,0,0,1-.16-.78l-.11-.08.07-.11a.39.39,0,0,0,.06-.2q0-.14.06-.39l.14-.74a.28.28,0,0,1,0-.14.53.53,0,0,1,.06-.23.73.73,0,0,1,0-.21.68.68,0,0,1,0-.21l.07,0a.69.69,0,0,0,.17-.38.2.2,0,0,0-.06-.15c-.05,0-.07-.07-.07-.08s0-.08.11-.1c-.1,0-.15-.06-.15-.13s.07-.09.21-.09v0a.7.7,0,0,1,.12-.4.65.65,0,0,0,.13-.25l-.13,0,.26-.42v-.09a1.08,1.08,0,0,1,.27-.73l0-.36.09-.06a.32.32,0,0,1-.07-.19s0-.06.13-.06v-.32c.07,0,.1-.05.1-.1a.31.31,0,0,0,0-.11c0-.06.13-.16.27-.32a1.73,1.73,0,0,0,.29-.39h.05c.15,0,.23,0,.23-.11A.18.18,0,0,0,63,309q.4,0,.42-.15l.36-.19,1,.09v.08l.84.17h.07c.13,0,.19.06.19.17l.1,0a.21.21,0,0,0,.22.18l.1,0,.18.17.42.11v.18a2.85,2.85,0,0,1,.72-.33v.33h-.1l.2.09,0,0,.15.51-.17.2-.08.33a1.59,1.59,0,0,1-.19.41l.13.25-.11.16a.8.8,0,0,0-.09.45.11.11,0,0,1,0,.1l0,.16,0,.14,0,.21,0,.19-.11.14,0,.44-.06,0,.06.09-.06.06a.13.13,0,0,1,0,.08.27.27,0,0,1-.06.17l.06.13-.1.18s-.08.12-.08.28l.08.25-.19.25a.75.75,0,0,0,.19.26,2,2,0,0,0-.24.77l.16,0,0,.11s0,.07,0,.14a1,1,0,0,1-.14.4H67l.06.3.4,0,.14.25s-.06.05-.06.07.06.12.19.2h0s0,0,0,0S67.74,317.77,67.85,317.86Zm-1-7.19-.12-.36-.32-.1-.56-.49a.35.35,0,0,0-.2-.08.41.41,0,0,0-.16,0l-.1-.1h-.32l-.1-.13-.22.09-.1-.09-.17.05-.31-.05a2,2,0,0,0-.7.23l0,.08-.18.05,0,.08-.22,0V310a1.62,1.62,0,0,0-.46.63,6.39,6.39,0,0,1-.36,1l.15.08-.25.22.08.16a1,1,0,0,0-.18.61v.11l-.14.22v.34a.59.59,0,0,0-.18.36l-.08.08v.36l-.07.1a2.48,2.48,0,0,1-.07.53l.1.25a.71.71,0,0,0-.28.24l.08.16-.12.15.16.4-.18.25,0,.48-.06.22.1.06,0,.14a.66.66,0,0,1,.28.22l.46-.11a.5.5,0,0,1,.44-.31l0-.14.32-.09s0,0,0-.11a.42.42,0,0,1,.18-.21h0s.06,0,.06-.07l.36-.42h-.08l.21-.2a.92.92,0,0,1,.33-.18l.14-.39c.25-.1.39-.24.42-.41h.12l.19-.26,0-.16.18,0a.49.49,0,0,1,0-.1,1.13,1.13,0,0,1,.14-.22c.09-.13.16-.23.21-.32l.09,0a.46.46,0,0,1,.22-.36.41.41,0,0,1,.15-.25.39.39,0,0,1,.17-.09h.14l0-.25a.11.11,0,0,0,0-.08.21.21,0,0,0,0-.11,1,1,0,0,1,.28-.36l0-.22.13-.11,0-.17a1.26,1.26,0,0,0,.14-.36l.18-.18Z"/><path class="cls-4" d="M82.13,315c0,.1-.06.21-.24.31l0,.07a.94.94,0,0,1-.26.42.94.94,0,0,0-.26.48l-.22.06a.43.43,0,0,1-.36.48c0,.07,0,.11-.1.11h0c0,.12-.09.17-.22.17l-.12.23-.28.06-.23.16-.13.05-.44.08-.16,0-.14,0-.06-.08-.18,0-.22-.28h-.1a.33.33,0,0,1-.08-.22,1,1,0,0,1-.32-.55v-.15l-.14-.27V316l.1-.06-.08-.29-.14-.36,0-.53-.2-.33v-.49a13.93,13.93,0,0,1-.28-1.78v-.08a.85.85,0,0,1,0-.22c0-.06,0-.1,0-.12a1.31,1.31,0,0,1-.24-.56l-.1-.09-.42.44-.2.29-.7.84-.28.49a3.7,3.7,0,0,1-.23.48,2.46,2.46,0,0,1-.39.44l.06.19-.14.38-.16,0v.17h-.1l-.38.46c0,.22-.1.35-.26.38a1.15,1.15,0,0,0-.15.38c0,.16-.12.24-.23.25l-.08.08a2.89,2.89,0,0,1-.34.49,4.32,4.32,0,0,1-.46.39.51.51,0,0,1-.24.4l0,.09a.49.49,0,0,1-.1.26.88.88,0,0,1-.48.22c-.1,0-.17-.12-.22-.33a.51.51,0,0,0-.24-.38l-.06-.13.16-.25,0-.25.1-.09-.1-.18,0-.24-.16-.44.14-.27-.08-.27a1.92,1.92,0,0,0,.14-.82v-.11a.69.69,0,0,0-.12-.23.34.34,0,0,0,.16-.25l0-.31.12-.76-.08-.15,0-.31-.1-.18.08-.64,0-.22.06-.37-.06-.51.14-.27a1.52,1.52,0,0,1,.39.15.44.44,0,0,1,.05.18,4.4,4.4,0,0,1,0,.45l.16.27-.06.38.08.82-.14.44.06.52v.24l-.18.29.12.42a2.94,2.94,0,0,0-.14.55l.1.23a2.62,2.62,0,0,0-.16.79l0,.72.06.1.24-.12h.2l.1-.44c.15-.05.25-.12.28-.22a.26.26,0,0,1,.3-.24.42.42,0,0,1,.14-.3c.05,0,.11-.1.18-.29a1.48,1.48,0,0,0,.32-.41v-.28h0c.06,0,.12,0,.19-.14a.3.3,0,0,1,.25-.14.86.86,0,0,1,.18-.36l.28-.34.26-.56a.87.87,0,0,1,0-.21.05.05,0,0,1,.06-.06c.26-.17.4-.34.4-.51V312c.2-.07.3-.15.3-.21a.26.26,0,0,0,0-.11.33.33,0,0,1,0-.1c0-.06,0-.09.08-.09a.41.41,0,0,1,.16.05c.09-.35.24-.53.44-.53a.54.54,0,0,1,.18,0,.6.6,0,0,1,.18-.46c0-.09.18-.19.46-.31l.1-.15h.08a1,1,0,0,0,.28.28l0,.14.1,0,0,.38.26.15-.08.35.14.62v.58l.14.68.06.71.2.67,0,.66.1.19a1.33,1.33,0,0,1,.14.45l.08.06v.3l.18.19,0,.15.14.08v.1a.68.68,0,0,0,.32.11.52.52,0,0,0,.3-.08.22.22,0,0,0,.1,0q.09,0,.18-.15c.18,0,.28-.07.28-.16v-.05a.91.91,0,0,1,.4-.19,1,1,0,0,1,.2-.2l0-.05a.59.59,0,0,1,.08-.11,1.79,1.79,0,0,1,.19-.18.56.56,0,0,0,.18-.21l.11-.21c.09-.12.21-.31.38-.57l.28-.13h.18Z"/><path class="cls-4" d="M91.91,315.54l-.16.76,0,.17-.08.1a.9.9,0,0,1,.12.43l0,.2,0,.4a6.45,6.45,0,0,1-.09.95c-.06.38-.1.64-.11.77l0,.29a2.11,2.11,0,0,1-.21.55h.11l0,.3-.12.15a.93.93,0,0,0-.13.33,2.7,2.7,0,0,1-.17.44l-.25.41a1.64,1.64,0,0,1-.34.39l-.53.46-.3.13a.88.88,0,0,1-.36.21l-.1.12-.72.13h0l0,.07a1.59,1.59,0,0,1-.64.12H87l-.51-.12-.33.06-.14-.13-.58-.08-.23-.21a3.73,3.73,0,0,0-.51-.32A1,1,0,0,1,84,322l.08-.09-.08-.37a.23.23,0,0,1,.18-.09.14.14,0,0,1,.12-.08l.23,0,.47.06,0,.2a.53.53,0,0,1,.28.12.32.32,0,0,1,0,.16l0,.1c0,.15,0,.24.17.26s0,.13,0,.13l.14,0,.84.27.22,0,0,.07h.44a1.15,1.15,0,0,1,.34.07,2.57,2.57,0,0,1,1.06-.22.65.65,0,0,0,.32-.16c.25,0,.39-.08.44-.16h.06a.65.65,0,0,0,.19,0,.61.61,0,0,0,.16-.12l.67-.7.38-.58,0-.26.22-.33,0-.29.1-.24.12-.6.16-.59,0-.42V318a1.68,1.68,0,0,1,.14-.72l-.12-.44v-1l-.14-.38v-.6l-.18-.42,0-.68-.24-.74a.2.2,0,0,0-.14-.06c-.07,0-.16.07-.26.2l0,.2-.27.12-.15.38-.26.25-.36.59L89,315l-.56.64L88,316c-.14.11-.28.23-.43.33a1.26,1.26,0,0,0-.25.22l-.1.15a1.12,1.12,0,0,1-.27.2l-.32.15-.17.19a3.12,3.12,0,0,1-.43.27.28.28,0,0,1-.26.14h-.06a1.34,1.34,0,0,1-.87.34l-.29,0-.16.1a1.21,1.21,0,0,0-.42-.1,2.65,2.65,0,0,1-.82-1.2L83,316l0-.5.22-.76,0-.24.08-.33a1.89,1.89,0,0,1,.19-.51,1.14,1.14,0,0,0,.11-.49l0-.31.4-.78.12-.14a3,3,0,0,0,.34-.52l.22-.24a1,1,0,0,1,.32-.47.63.63,0,0,0,.26-.46.83.83,0,0,1,.41-.17.54.54,0,0,0,.43-.38l.14,0,.36-.26a.51.51,0,0,1,.36-.22l.16,0,.59-.22.37.08h.26l.2.14h.12a2.6,2.6,0,0,0,.39.42,2,2,0,0,1,.37.4.85.85,0,0,1-.12.46H89l-.26-.42a1,1,0,0,1-.42-.26l-.1,0a1.2,1.2,0,0,0-.42-.13,1.12,1.12,0,0,0-.68.27l-.14,0,0,.13h-.18l-.26.06c-.07.19-.18.29-.34.29a1.55,1.55,0,0,1-.38.32l-.12.25-.18.05,0,.14h-.18l-.32.56-.26.18-.12.36-.27.42a1.1,1.1,0,0,0-.07.46l-.22.24-.22.89-.2.23,0,.36-.24.82.08.27,0,.38a.69.69,0,0,1,.15.31.43.43,0,0,0,.21.28l.06.2a.53.53,0,0,1,.26.11.75.75,0,0,1,.29-.06l.19,0,.24,0a1.86,1.86,0,0,1,1-.25c.07-.07.15-.17.24-.28a1.27,1.27,0,0,1,.26-.26l.34-.22a1.84,1.84,0,0,1,.28-.17c.24-.06.36-.18.36-.37q.48-.19.54-.42l.16-.05a.68.68,0,0,0,.21-.15,3.92,3.92,0,0,0,.45-.58l.12.08.08-.19.22-.08a.17.17,0,0,1,0-.09.35.35,0,0,1,.12-.25l.14,0a.19.19,0,0,0,.1-.1l.06-.15.38-.5h.08l.06-.4a4.61,4.61,0,0,0,.54-1.28l.15-.05-.11-.31-.07-.32a.84.84,0,0,0-.13-.3l-.2-.35.12-.31-.08-.36c.06-.14.14-.21.22-.21a.2.2,0,0,1,.11,0,1.44,1.44,0,0,1,.21.34l.2.09,0,.36.09.27c0,.08,0,.15,0,.2a1.11,1.11,0,0,0,.07.28.85.85,0,0,1,.07.28c0,.05,0,.08-.06.08a2,2,0,0,0,.26.52l-.06.4a1,1,0,0,1,.22.36.35.35,0,0,1-.12.24l0,.26.13,0-.06.27.08.52a1,1,0,0,1,.1.44l0,0a1.16,1.16,0,0,0-.06.46l.14.11Z"/><path class="cls-4" d="M100.05,316.24a.73.73,0,0,1,.15.33.76.76,0,0,1-.18.33,2,2,0,0,0-.28.54l-.15,0-.21.42-.25,0-.54.36-.09.22-.17,0-.17.2h-.29l-.06.1-.13,0a.48.48,0,0,0-.38.2l-.13-.1a1,1,0,0,1-.33.1.64.64,0,0,1-.36-.1l-.27,0-.12-.1a.9.9,0,0,1-.72-.3v-.25l-.32-.17-.08-.21a.8.8,0,0,0-.21-.25v-.16l-.23-.95,0-.67.08-.38V315l.11-.36,0-.27a.36.36,0,0,0,.13-.22,1.28,1.28,0,0,1,.12-.29c0-.12,0-.29-.08-.5l.18-.15-.18-.19a.94.94,0,0,0,.14-.29l-.1-.59a1.52,1.52,0,0,1,.06-.42.32.32,0,0,0,.26.17,2.11,2.11,0,0,0,.39-.07.32.32,0,0,1,0-.14.3.3,0,0,1,.15-.24,3.72,3.72,0,0,1,.44-.92.47.47,0,0,0,.19-.4h.09l.1-.2.12-.05a.84.84,0,0,1,.2-.29,1.36,1.36,0,0,0,.54-.46.54.54,0,0,0,.17,0s.07-.07.15-.22l.37-.12s.11,0,.17.12l.19,0,.09.07h.12a.41.41,0,0,0,.4.33h.06a.29.29,0,0,0,.13.2l-.09,0c.23.11.34.37.34.77l-.06.23.06.55-.1.09-.22.6-.4.5,0,.28a6.26,6.26,0,0,1-1.17.8c0,.08-.07.12-.13.12l-.16,0-.44.3h-.26l-.38.18-.17-.1a1.43,1.43,0,0,0-.41-.08,1,1,0,0,0-.3.73l-.14.17a2,2,0,0,1-.09.52l-.11,0,.11.73-.11.1,0,.22,0,.27c0,.05,0,.17,0,.37s.08.32.15.36,0,.2.2.33a1.33,1.33,0,0,0,.51.27V318l.52.08.74,0,.5-.06a2.06,2.06,0,0,1,.44-.27l.15-.23h.19l0-.1a1.77,1.77,0,0,0,.47-.2.14.14,0,0,0,0-.1.19.19,0,0,1,.18-.12l.06-.13a.65.65,0,0,0,.55-.57A.36.36,0,0,1,100.05,316.24Zm-1.64-4.56s.14-.09.26-.24l.06-.24a3.71,3.71,0,0,0,.28-.52.79.79,0,0,0,0-.28,2.26,2.26,0,0,0-.13-.59l-.4-.13-.21,0-.12,0a.22.22,0,0,0-.2.17,1.58,1.58,0,0,0-.54.15l-.06.14a.1.1,0,0,0-.07,0h-.06s0,0,0,0l0,0,0,.06,0,.09,0,.08a1.12,1.12,0,0,1-.13.18l-.14.17-.29.54-.14.13s-.08.12-.11.25a4.38,4.38,0,0,1-.53.94l.14.07.07.17.33.1a1.75,1.75,0,0,1,.61-.27l0-.11.16,0a.24.24,0,0,0,.19-.12l.23,0,.15-.24h.13l.1-.22a.7.7,0,0,0,.5-.24Z"/><path class="cls-4" d="M106.39,315.6a.23.23,0,0,1,.12.18c0,.16,0,.26-.12.27q-.24.39-.48.39a3,3,0,0,1-.66.66.53.53,0,0,0-.25.11l-.27.25a.36.36,0,0,0-.36.24l-.2.05-.08,0-.06.17h0a1.14,1.14,0,0,0-.42.12l-.35.13-.2.08h-.14l-.12-.17-.18-.16a2.09,2.09,0,0,0-.3-.53l-.06-.47,0-.24-.1-.13,0-.57,0-.5,0-.24a.32.32,0,0,0,.06-.16.79.79,0,0,0-.14-.36c.05-.56.08-.86.08-.92a.53.53,0,0,0-.16-.36l.16-.08.06-.76,0-.32.15-.36-.11-.41a.8.8,0,0,0,.16-.51v-.67l.06-.15,0-1,.06-1a1.69,1.69,0,0,1-.1-.75l.06-.6-.06-.22.1-.91.23-.09.15-.06a.18.18,0,0,1,.08,0l.1.32.2.17-.14.21v.08a.44.44,0,0,0,.07.24q0,.33-.15.33l.06.11a3.75,3.75,0,0,0,.1.84l-.16.52.13.17a1.55,1.55,0,0,0-.23.77.22.22,0,0,0,.18.24L103,310a1,1,0,0,1,.08.23.72.72,0,0,1-.08.27l0,.23-.1.65v.3a5,5,0,0,1-.16.64l.09.41-.06.77-.1.07.12.25-.08.38-.08.6.08.14-.08.06a.76.76,0,0,1,.13.48.63.63,0,0,1-.09.23l.09.23,0,.3.08.22,0,.16.21.66.24.09a1.66,1.66,0,0,1,.46-.17l.12,0L104,317a.69.69,0,0,1,.25-.1.38.38,0,0,1,.34-.2l.1-.11.14,0,0-.1.2-.05.18-.14.2-.06a2.29,2.29,0,0,0,.19-.17,1.25,1.25,0,0,1,.31-.25q0-.09.12-.15a.09.09,0,0,0,.08,0A.41.41,0,0,0,106.39,315.6Z"/><path class="cls-4" d="M156,319.08a.74.74,0,0,1-.3.14l-.42-.29-.54-.67-.16-.4a3,3,0,0,0-.16-.64,1.82,1.82,0,0,1-.22-1.1.35.35,0,0,1,0-.2,2.79,2.79,0,0,0,.11-.66l-.21-.42.06-.2-.06-.38,0-.44-.14-.14.12-.3-.12-.18.12-.18-.14-.42V312l-.16-.38c0-.17,0-.32,0-.44s-.13-.26-.37-.42l-.26.31-.22.11-.67.94-.59.7-.2.42-.56.64-.75.56-.07.33-.4.15-.06.27-.46.23-.16.38-.32.12-.46.82c-.18,0-.29.16-.32.5l-.14,0a3.34,3.34,0,0,0-.32-.52l0-.27-.14-.17.14-.18-.13-.14a2,2,0,0,1-.15-.42l-.28-.26a.59.59,0,0,1-.21-.23c-.08-.13-.15-.23-.2-.3a2.11,2.11,0,0,1-.17-.47l-.22-.26-.38-.76-.4-.46-.14-.28-.38-.42-.4-.63c-.22-.34-.4-.51-.53-.51a.75.75,0,0,0-.26,0,.44.44,0,0,1-.14,0h0v.25a2.13,2.13,0,0,1-.18,1l-.42.79.1.5-.14.35-.4,1.35-.16.44-.06.3-.26.64-.32.56,0,.44-.34.82a.29.29,0,0,0,.18.26q-.39.48-.51.48s-.09-.05-.16-.15a.65.65,0,0,1-.11-.37,1.44,1.44,0,0,1,.08-.25,3.88,3.88,0,0,0,.14-.5.91.91,0,0,1,.17-.43l.11-.14v-.49a.63.63,0,0,1,.4-.61v-.32l.12-.46a.22.22,0,0,1,0-.12,1.33,1.33,0,0,1,.11-.4.55.55,0,0,0,.13-.36v-.44l.18-.32.36-1.2-.1-.54.18-.14.07-.24,0-.86a5.35,5.35,0,0,0,.09-.76,2,2,0,0,0-.26-.75l.17-.33-.09-.14a.18.18,0,0,0,.09-.18.41.41,0,0,0,.37-.14l.18,0,.24.18v.17l.22.15.06.46.19.16.07.28h.1a.27.27,0,0,0,0,.14c0,.11.11.18.32.2a.86.86,0,0,1,.28.22l0,.26.22.23.14.47.9,1,.16.54.31.24.27.78.68,1.22a3,3,0,0,0,.52.64l0-.27h.36l.22-.49.42-.3a5.21,5.21,0,0,1,.37-.4v-.16a4,4,0,0,1,.44-.27c.15-.08.23-.13.23-.15s0,0,0,0a.67.67,0,0,1,.12-.33h.2l.18-.25c0,.07.08.1.11.1s0,0,0-.06,0-.13,0-.36q.44-.6.78-.6v-.24c0-.14.11-.24.34-.3l.12,0,0-.12.42-.67,0-.13h.14a2,2,0,0,0,.44-.75.53.53,0,0,1,.3-.09.1.1,0,0,1,.1.06l.14-.3-.08-.6-.12-.29a1.7,1.7,0,0,0,.29-.63.91.91,0,0,1,.31.08.43.43,0,0,0,.26.1l0,.32c.22.19.34.29.35.31a.38.38,0,0,1,0,.13l0,.16v.54l.12.18-.12.1.12,0,0,.22.08.09.06.42.1.09-.2.28.1,0-.06.42.15.36-.05.46.18.72c0,.14.07.34.1.59a1.6,1.6,0,0,1-.23.37l.11.24c.05,0,.08.06.08.1a.55.55,0,0,1-.07.19,1.06,1.06,0,0,0-.11.25l.16.14-.06,1.1.2.68v.8l.14.16a2.39,2.39,0,0,0,.2.4,3.24,3.24,0,0,0,.31.34A1,1,0,0,1,156,319.08Z"/><path class="cls-4" d="M160.88,306.06a.78.78,0,0,1-.34.34v.12l-.18.2c-.06.08-.11.11-.15.11l-.11,0-.54.64-.13.21-.48.15-.25.36-.22.1a2.16,2.16,0,0,0-.44.38l-.12-.08,0-.24.46-.21c.07-.32.15-.51.25-.55s.15-.07.15-.08v-.08l.1-.06,0,0,0-.14H159L159,307h.31v-.28l.15,0,.09-.16.16-.06.15-.26c.05,0,.09,0,.11-.12H160l0-.2a.63.63,0,0,0,.24-.4A.78.78,0,0,1,160.88,306.06Zm2,10.06,0,.2-.18.13-.08.25-.27.08a.93.93,0,0,1-.29.49l-.24.09-.22.24a1.68,1.68,0,0,0-.34.36h-.13a.59.59,0,0,1-.44.22,3,3,0,0,0-.25.32,1.14,1.14,0,0,1-.37.14l-.29.06-.08.12h-.32l-.18.13-.5-.37-.28-.64,0-1-.06-.2.2-1.64.13-.1-.06-1a.93.93,0,0,1,.05-.34,2.58,2.58,0,0,0,.1-.45l.08-.05a1.15,1.15,0,0,0-.14-.55l.08-.27v-.37l.1-.12a2.34,2.34,0,0,0-.07-.32l0-.2c0-.11,0-.16.08-.16a0,0,0,0,0,0,0,1.54,1.54,0,0,1-.14-.4c0-.1.05-.15.14-.15a.28.28,0,0,1,.13.06.37.37,0,0,0,.15.05l.1,0c0-.11,0-.16.14-.16s.12,0,.13,0a2.84,2.84,0,0,1,.05.38l.22.09-.18.23-.2,1.28.16.32a.48.48,0,0,1-.18.38l-.06.26.06.22-.24.82,0,.1-.09.66v.48l-.15.32,0,.28,0,.46a2.08,2.08,0,0,0,.16.89v.11l.17.12.21-.06.23.1.28-.14a.89.89,0,0,1,.35-.15l.13-.13,0,.06.12-.16.2-.06a1.15,1.15,0,0,1,.5-.26.35.35,0,0,1,.28-.16l.12-.18.23,0-.05-.22h.09l0-.11.42-.21,0-.24.38,0A.36.36,0,0,1,162.86,316.12Z"/><path class="cls-4" d="M168.7,316.32c.09.06.13.12.13.18s0,.26-.13.28c-.15.25-.31.38-.48.38,0,.06-.21.28-.65.66a.58.58,0,0,0-.26.11,2.56,2.56,0,0,1-.27.25.37.37,0,0,0-.36.24l-.19.06-.08,0-.06.16h-.06a1.14,1.14,0,0,0-.42.12l-.34.14-.21.07h-.13l-.12-.17-.19-.16a1.48,1.48,0,0,0-.3-.52l-.06-.48,0-.24-.1-.12,0-.58,0-.5,0-.24a.29.29,0,0,0,.06-.16.75.75,0,0,0-.13-.36c.05-.55.07-.86.07-.92a.56.56,0,0,0-.15-.36l.15-.08.06-.76,0-.32.15-.36-.11-.4a.85.85,0,0,0,.17-.52V311l.06-.15,0-1,.06-1a1.56,1.56,0,0,1-.1-.75l.06-.6-.06-.22.1-.91.23-.09.15-.06.08,0,.09.32.21.18-.15.2v.08a.44.44,0,0,0,.07.24q0,.33-.15.33l.06.11a3.59,3.59,0,0,0,.11.84l-.17.52.13.18a1.5,1.5,0,0,0-.22.76.21.21,0,0,0,.17.24l-.14.38a.68.68,0,0,1,.08.24.57.57,0,0,1-.08.26l0,.23-.09.65v.3a4.1,4.1,0,0,1-.17.64l.1.42-.06.76-.11.08.13.24-.09.38-.08.6.08.14-.08.06a.74.74,0,0,1,.13.48.72.72,0,0,1-.09.24l.09.22-.05.3.09.22,0,.16.21.66.25.1a1.4,1.4,0,0,1,.46-.18l.12,0,.27-.24a.72.72,0,0,1,.24-.1.4.4,0,0,1,.34-.2l.1-.11.15,0,0-.09.19-.06.19-.14.19-.06s.08-.06.19-.17a1.88,1.88,0,0,1,.31-.25c0-.06,0-.1.13-.14a.1.1,0,0,0,.08,0A.43.43,0,0,0,168.7,316.32Z"/><path class="cls-4" d="M176.87,315.58l-.32.34a1,1,0,0,1,0,.27.79.79,0,0,1-.06.22,1.19,1.19,0,0,1-.15.18,2.23,2.23,0,0,0-.2.34,1.93,1.93,0,0,1-.23.37,2.85,2.85,0,0,1-.27.32l-.34.25a2.27,2.27,0,0,0-.49.35l-.17,0a1.46,1.46,0,0,0-.37.25H174l-.46.35-.16-.1L173,319l-.4-.09-.12.14-.24-.05L172,319l-.06-.07-.28,0a.66.66,0,0,1-.28-.13l-.32-.26-.3-.44a.8.8,0,0,1-.2-.54v-.08l-.22-.34v-.3l-.08-.12,0-.4-.07-.32.12-.32-.08-.14.2-.33-.06-.42,0-.17a.79.79,0,0,1,.19-.4l0-.46.14-.12-.06-.12.14-.2a6.83,6.83,0,0,1,.42-1.26l.34-.34.1-.25.16-.27a1.09,1.09,0,0,1,.2-.44.6.6,0,0,0,.4-.16c0-.23.19-.34.6-.34a2.11,2.11,0,0,1,.38.1.59.59,0,0,1,.38.32c.2,0,.3.07.3.22l.58,0,0,.18.11.14v.23l.14.19,0,.25,0,.15,0,.4.1.14v.2l.06.42-.4.22-.42-.5,0-.65-.08-.23v-.24l-.23-.29a1.78,1.78,0,0,0-.45-.35l-.28.12H173a.94.94,0,0,0-.42.16,1.84,1.84,0,0,0-.46.59,1.78,1.78,0,0,1-.42.55l0,.28-.16.14v.4l-.2.26-.08.27a2.36,2.36,0,0,0-.16.47c0,.17-.07.26-.1.28l0,.32-.18.42,0,.3-.08,0,0,.76,0,0,0,.18-.08.08.29.34a1.08,1.08,0,0,1,.11.32l-.06.06.2.28.16.06,0,.2,1.06.24a.38.38,0,0,1,.26-.15l.2.05a.56.56,0,0,1,.28-.12l.14,0,.14-.09a.84.84,0,0,1,.38-.09c.11-.23.25-.34.42-.34a.39.39,0,0,1,.16,0c.33-.15.5-.27.5-.38a.42.42,0,0,1,.42-.22h.08c.55-.6.81-.93.78-1a1.21,1.21,0,0,0,.34-.56l.18-.12,0-.26C176.82,315.11,176.87,315.29,176.87,315.58Z"/><path class="cls-4" d="M186.15,318.64a1,1,0,0,1,0,.26c0,.3-.14.45-.44.45s-.33-.16-.4-.49l-.13-.62v-.18a3.28,3.28,0,0,0,0-.34.92.92,0,0,0-.21-.52l.14-.33-.08-.47.08-.24v-.32l0-.28-.09-.32.09-.18v-.74l0-1-.15-.64.08-.26-.18-.76v-.25l-.32-.13-.36.33a1.16,1.16,0,0,1-.2.13l-.34.14-.56.8-.22.06-.5.82v.1h-.13l-.06.18-.22.2a.84.84,0,0,0-.18.38l-.21.69-.3.4a.88.88,0,0,0-.14.33l-.19.18-.09.52-.42.4,0,.56h-.08l-.14.38-.32.58a4.6,4.6,0,0,0-.46.58l-.09,0h-.13l-.06-.11-.18-.67,0-1.1-.06-.32.06-.41,0-.69.09,0,.14-1.7.06-.32,0-.24.11-.06-.05-.14.09-.7.09-.29-.06-.29.06-.14-.06-.12.06-.67-.09-.09,0-.14,0-.76-.12-.34h.12v-.18l-.18-.82v-.4l-.08-.19-.1-.63a3.25,3.25,0,0,0-.32-.82l.23-.32,0-.06a.21.21,0,0,1,.23.24l.28.26.08.23a1.38,1.38,0,0,0,.25.33l-.05.18.12.36-.12.18.18.14,0,.52,0,1,.12.5-.08.22,0,.38-.08.32.06.5-.13.5.07.13,0,1.22,0,.19-.07.1-.09.74-.1.21.08.25,0,.12,0,.66-.2.58c.15.17.22.28.22.34l-.16.28a1,1,0,0,1,.1.48l.19-.15.07-.25.32-.64.14-.46a.41.41,0,0,0,.33-.42,2.1,2.1,0,0,0,.29-.48l.09-.26a1,1,0,0,1,.19-.32l0-.26-.06-.06.14-.12,0,.06.32-.4a.25.25,0,0,0,.16-.24v-.08c.17,0,.26-.15.26-.36l.06,0v-.1l.17,0,0-.26h.13l0-.16h.14v-.13a.54.54,0,0,1,.17-.09s0,0,0,0v0l0-.17h.06c.16,0,.24-.13.24-.38l.24-.2,0,.08a.79.79,0,0,0,.19-.4l.13-.06.06-.16.16,0a.42.42,0,0,1,.22-.11l.16,0,0-.08a1.67,1.67,0,0,1,.5-.22c.08,0,.19.08.32.26a.16.16,0,0,1,.15.18l.17.14a2.25,2.25,0,0,0,.32.68v1.56l0,.82.07.19v1.47l0,.26v.5l0,.42-.07.5a1.32,1.32,0,0,1,.11.6l.2.24v.24Z"/></svg>